<svg xmlns="http://www.w3.org/2000/svg" xmlns:xlink="http://www.w3.org/1999/xlink" viewBox="0 0 2800 2800">
  <defs>
    <linearGradient id="b0bffa53-f574-4559-9baf-8047b14fb5a6" x1="1318.27" y1="2339.41" x2="1318.27" y2="2556.48" gradientUnits="userSpaceOnUse">
      <stop offset="0.49" stop-color="#ebeff2"/>
      <stop offset="1" stop-color="#fff"/>
    </linearGradient>
    <linearGradient id="fdfbf64a-bc36-46f7-bc24-df05e4679cb2" x1="723.3" y1="767.64" x2="1646.06" y2="2460.1" gradientUnits="userSpaceOnUse">
      <stop offset="0" stop-color="#444b8c"/>
      <stop offset="1" stop-color="#26264f"/>
    </linearGradient>
    <linearGradient id="bc1baceb-b1f5-4f51-818b-7d07168bcb05" x1="1215.38" y1="922.28" x2="1381.02" y2="1931.9" gradientUnits="userSpaceOnUse">
      <stop offset="0" stop-color="#e38ddd"/>
      <stop offset="1" stop-color="#9571f6"/>
    </linearGradient>
    <linearGradient id="a068e099-16c1-4cd7-9c55-a03e2e22319a" x1="1129.21" y1="1216.48" x2="1517.61" y2="1216.48" gradientUnits="userSpaceOnUse">
      <stop offset="0" stop-color="#ff9085"/>
      <stop offset="1" stop-color="#fb6fbb"/>
    </linearGradient>
    <linearGradient id="f3a15b0e-6255-4839-967e-b022bc6c5f0c" x1="1129.21" y1="1254.73" x2="1517.61" y2="1254.73" xlink:href="#a068e099-16c1-4cd7-9c55-a03e2e22319a"/>
    <linearGradient id="bb5c38af-adf2-4437-86e1-89bc4fe548b9" x1="1060.98" y1="1367.78" x2="1336.94" y2="1367.78" xlink:href="#a068e099-16c1-4cd7-9c55-a03e2e22319a"/>
    <linearGradient id="b09274f3-1152-4535-b0ec-f0449c3fd769" x1="1218.91" y1="922.89" x2="1370.47" y2="1846.68" xlink:href="#bc1baceb-b1f5-4f51-818b-7d07168bcb05"/>
    <linearGradient id="e2e2ec6a-9485-4315-8a43-ef0b1316b60a" x1="970.74" y1="1133.33" x2="1246.52" y2="1133.33" xlink:href="#a068e099-16c1-4cd7-9c55-a03e2e22319a"/>
    <linearGradient id="f3aaf8c4-f0db-4fdc-9bbc-8cae501f6c60" x1="1129.21" y1="1981.75" x2="1517.61" y2="1981.75" xlink:href="#a068e099-16c1-4cd7-9c55-a03e2e22319a"/>
    <linearGradient id="bf085c89-bc71-46ba-8878-1e012d5c57f4" x1="1129.21" y1="2019.99" x2="1517.61" y2="2019.99" xlink:href="#a068e099-16c1-4cd7-9c55-a03e2e22319a"/>
    <linearGradient id="f85de5cb-7b82-482b-b117-006080d2bb19" x1="1306.64" y1="2051.66" x2="1684.99" y2="2051.66" xlink:href="#a068e099-16c1-4cd7-9c55-a03e2e22319a"/>
    <linearGradient id="bbc27ccb-d4e6-43fb-968e-c58c03c754ff" x1="1336.68" y1="1119.47" x2="1455.07" y2="1841.04" xlink:href="#bc1baceb-b1f5-4f51-818b-7d07168bcb05"/>
    <linearGradient id="eb0f0278-4956-43e9-9e08-691adb99299f" x1="970.74" y1="1910.9" x2="1246.52" y2="1910.9" xlink:href="#a068e099-16c1-4cd7-9c55-a03e2e22319a"/>
    <linearGradient id="bfe29d5b-8344-4f85-a5c9-0b5b3e9928a9" x1="1060.98" y1="1522.27" x2="1453.28" y2="1522.27" xlink:href="#a068e099-16c1-4cd7-9c55-a03e2e22319a"/>
    <linearGradient id="a345ca21-790f-4a55-8e9d-a963bd576eba" x1="1129.21" y1="1599.32" x2="1517.61" y2="1599.32" xlink:href="#a068e099-16c1-4cd7-9c55-a03e2e22319a"/>
    <linearGradient id="a6aa8cbe-3754-4b9d-b6f3-f5c1b9e0d773" x1="1129.21" y1="1637.56" x2="1517.61" y2="1637.56" xlink:href="#a068e099-16c1-4cd7-9c55-a03e2e22319a"/>
    <linearGradient id="eb1133b8-a044-4eb6-9816-336fdecebdeb" x1="971.43" y1="1677.82" x2="1220.33" y2="1677.82" xlink:href="#a068e099-16c1-4cd7-9c55-a03e2e22319a"/>
    <linearGradient id="fc8b27dd-ba31-4809-bffd-21c52bc40bf3" x1="1178.68" y1="984.03" x2="1316.26" y2="1822.61" xlink:href="#bc1baceb-b1f5-4f51-818b-7d07168bcb05"/>
    <linearGradient id="af671d5a-b6a7-4c96-b3a0-1c47fa90d36b" x1="1129.21" y1="1790.84" x2="1480.31" y2="1790.84" xlink:href="#a068e099-16c1-4cd7-9c55-a03e2e22319a"/>
    <linearGradient id="b37c4338-401d-4967-abbf-1f2699bbc347" x1="1211.27" y1="1827.48" x2="1558.14" y2="1827.48" xlink:href="#a068e099-16c1-4cd7-9c55-a03e2e22319a"/>
    <linearGradient id="fff40c52-b1b1-4381-9b78-ddf7bb0b1e08" x1="1211.27" y1="1865.55" x2="1558.14" y2="1865.55" xlink:href="#a068e099-16c1-4cd7-9c55-a03e2e22319a"/>
    <linearGradient id="a9dbeadb-de23-4433-9e21-ad7cd0f31ada" x1="1020.78" y1="947.93" x2="1173.25" y2="1877.24" xlink:href="#bc1baceb-b1f5-4f51-818b-7d07168bcb05"/>
    <linearGradient id="ae83746a-645d-4310-8f5a-63fc0da975db" x1="1929.14" y1="1052.08" x2="1441.59" y2="1113.02" gradientUnits="userSpaceOnUse">
      <stop offset="0" stop-color="#311944"/>
      <stop offset="1" stop-color="#893976"/>
    </linearGradient>
    <linearGradient id="ae033803-b623-4eeb-aae1-eaa0251c66c6" x1="2468.87" y1="60.27" x2="1000.08" y2="2368.25" gradientUnits="userSpaceOnUse">
      <stop offset="0" stop-color="#aa80f9"/>
      <stop offset="1" stop-color="#6165d7"/>
    </linearGradient>
    <linearGradient id="a2f11994-971e-4c6a-b57a-1a30fd1ac0c3" x1="1888.37" y1="1053.09" x2="1541.96" y2="1162.15" xlink:href="#ae83746a-645d-4310-8f5a-63fc0da975db"/>
    <linearGradient id="a1779b72-7f5c-45b1-9d5b-61347c1ac0c8" x1="2344.75" y1="-18.72" x2="875.96" y2="2289.27" xlink:href="#ae033803-b623-4eeb-aae1-eaa0251c66c6"/>
    <linearGradient id="bb17e404-aacf-44f2-831a-b96e8af5ed4c" x1="2074.81" y1="858.46" x2="1314.63" y2="1589.77" xlink:href="#a068e099-16c1-4cd7-9c55-a03e2e22319a"/>
    <linearGradient id="bb9fd7ad-877b-4b12-89e1-c4b53d19c15e" x1="2037.53" y1="819.71" x2="1277.35" y2="1551.03" xlink:href="#a068e099-16c1-4cd7-9c55-a03e2e22319a"/>
    <linearGradient id="f64f3927-a041-40ed-be0f-9a15d293ba53" x1="3163.86" y1="3021.11" x2="2249.43" y2="2226.43" gradientUnits="userSpaceOnUse">
      <stop offset="0" stop-color="#ffc444"/>
      <stop offset="1" stop-color="#f36f56"/>
    </linearGradient>
    <linearGradient id="eceae827-629c-442e-98f8-29020f515747" x1="2190.08" y1="2055.79" x2="2891.62" y2="3110.52" xlink:href="#f64f3927-a041-40ed-be0f-9a15d293ba53"/>
  </defs>
  <g style="isolation: isolate">
    <g id="e039cbd3-25d4-4e06-bb3c-3020190ba489" data-name="Calque 2">
      <g id="a24a24a1-2722-46e2-a495-77ba2b9c14f6" data-name="Illustration">
        <g>
          <circle cx="1400" cy="1400" r="1400" style="fill: #e43f3f"/>
          <g>
            <g>
              <path d="M1517.89,2546.28a92.33,92.33,0,0,1-61.23-69.52l-45.51-225.24-389.3,13.82L973.94,2500c-6.71,32.87,20.15,65.84,51.08,77.94l162.88,63.73a211.75,211.75,0,0,0,95.22,13.8L1627.34,2626a21.35,21.35,0,0,0,19.3-18.91c1.17-10.15,8.22-21.55-1.37-24.73Z" style="fill: #97a6b7"/>
              <path d="M1521.74,2532.59a91.59,91.59,0,0,1-61.17-68.66l-45.46-222.41-379.81,13.67-47.87,231.7a67.8,67.8,0,0,0,41.94,76.94l162.71,62.93a213.93,213.93,0,0,0,95.13,13.63l343.87-29.08a21.22,21.22,0,0,0,4.82-41.3Z" style="fill: url(#b0bffa53-f574-4559-9baf-8047b14fb5a6)"/>
            </g>
            <g>
              <g>
                <path d="M226.36,2401.22c-42.22,2.52-76.75-24.87-76.75-61.06V1035.65c0-36.2,34.53-64.15,76.75-62.32L2187.2,1109.08c31,1.34,47.63-23.68,47.63,7.11V2225.66c0,30.79-25.1,57.33-56.09,59.17Z" style="fill: #97a6b7"/>
                <path d="M243.91,2401.22c-42.22,2.52-76.76-24.87-76.76-61.06V1035.65c0-36.2,34.54-64.15,76.76-62.32l1952.37,84.6c31,1.34,56.1,27.47,56.1,58.26V2225.66c0,30.79-25.1,57.33-56.1,59.17Z" style="fill: #fff"/>
                <path d="M2196.28,1084,243.91,1003.72c-22.57-.93-40.92,14-40.92,33.31V2338.19c0,19.33,18.35,33.94,40.92,32.65l1952.37-112.12c16.62-.95,30-15.11,30-31.63V1115.18A31.49,31.49,0,0,0,2196.28,1084Z" style="fill: #d8dee8;opacity: 0.30000000000000004;mix-blend-mode: multiply"/>
              </g>
              <g>
                <path d="M2181.78,2164.84,265.07,2259.46c-20.12,1-36.47-12.31-36.47-29.71V1054.12c0-17.4,16.35-30.9,36.47-30.15l1916.71,71.14a28.43,28.43,0,0,1,27.21,28.16V2136.35A28.86,28.86,0,0,1,2181.78,2164.84Z" style="fill: url(#fdfbf64a-bc36-46f7-bc24-df05e4679cb2)"/>
                <polygon points="743.22 1148.13 305.49 1135.25 305.49 1093.52 743.22 1107.67 743.22 1148.13" style="fill: #fff;opacity: 0.6000000000000001;mix-blend-mode: soft-light"/>
                <polygon points="949.36 1142.64 848.24 1139.58 848.24 1111.07 949.36 1114.34 949.36 1142.64" style="fill: #fff;opacity: 0.36;mix-blend-mode: soft-light"/>
                <polygon points="949.36 1181.97 848.24 1179.2 848.24 1150.69 949.36 1153.66 949.36 1181.97" style="fill: #fff;opacity: 0.36;mix-blend-mode: soft-light"/>
                <polygon points="1453.29 1195.76 1060.98 1185.02 1060.98 1156.95 1453.29 1168.51 1453.29 1195.76" style="fill: url(#bc1baceb-b1f5-4f51-818b-7d07168bcb05)"/>
                <polygon points="1517.61 1235.2 1129.21 1225.69 1129.21 1197.77 1517.61 1208.08 1517.61 1235.2" style="opacity: 0.5;fill: url(#a068e099-16c1-4cd7-9c55-a03e2e22319a)"/>
                <polygon points="1517.61 1272.88 1129.21 1264.5 1129.21 1236.57 1517.61 1245.76 1517.61 1272.88" style="opacity: 0.5;fill: url(#f3a15b0e-6255-4839-967e-b022bc6c5f0c)"/>
                <polygon points="1517.61 1310.56 1129.21 1303.3 1129.21 1275.37 1517.61 1283.44 1517.61 1310.56" style="fill: #fff;opacity: 0.6000000000000001;mix-blend-mode: soft-light"/>
                <polygon points="949.36 1221.29 848.24 1218.82 848.24 1190.3 949.36 1192.99 949.36 1221.29" style="fill: #fff;opacity: 0.36;mix-blend-mode: soft-light"/>
                <polygon points="949.36 1260.62 848.24 1258.43 848.24 1229.92 949.36 1232.31 949.36 1260.62" style="fill: #fff;opacity: 0.36;mix-blend-mode: soft-light"/>
                <polygon points="949.36 1299.94 848.24 1298.05 848.24 1269.54 949.36 1271.64 949.36 1299.94" style="fill: #fff;opacity: 0.36;mix-blend-mode: soft-light"/>
                <polygon points="949.36 1339.26 848.24 1337.67 848.24 1309.15 949.36 1310.96 949.36 1339.26" style="fill: #fff;opacity: 0.36;mix-blend-mode: soft-light"/>
                <polygon points="1220.33 1343.55 971.43 1339.61 971.43 1311.36 1220.33 1315.81 1220.33 1343.55" style="fill: #fff;opacity: 0.6000000000000001;mix-blend-mode: soft-light"/>
                <polygon points="949.36 1378.59 848.24 1377.28 848.24 1348.77 949.36 1350.29 949.36 1378.59" style="fill: #fff;opacity: 0.36;mix-blend-mode: soft-light"/>
                <polygon points="949.36 1417.91 848.24 1416.9 848.24 1388.39 949.36 1389.61 949.36 1417.91" style="fill: #fff;opacity: 0.36;mix-blend-mode: soft-light"/>
                <polygon points="949.36 1457.24 848.24 1456.52 848.24 1428 949.36 1428.93 949.36 1457.24" style="fill: #fff;opacity: 0.36;mix-blend-mode: soft-light"/>
                <polygon points="1336.94 1383.59 1060.98 1380.03 1060.98 1351.96 1336.94 1356.1 1336.94 1383.59" style="opacity: 0.5;fill: url(#bb5c38af-adf2-4437-86e1-89bc4fe548b9)"/>
                <polygon points="1480.31 1423.23 1129.21 1419.72 1129.21 1391.79 1480.31 1396.04 1480.31 1423.23" style="fill: #fff;opacity: 0.6000000000000001;mix-blend-mode: soft-light"/>
                <polygon points="1480.31 1461.02 1129.21 1458.52 1129.21 1430.59 1480.31 1433.83 1480.31 1461.02" style="fill: url(#b09274f3-1152-4535-b0ec-f0449c3fd769)"/>
                <polygon points="949.36 1496.56 848.24 1496.13 848.24 1467.62 949.36 1468.26 949.36 1496.56" style="fill: #fff;opacity: 0.36;mix-blend-mode: soft-light"/>
                <polygon points="949.36 1535.88 848.24 1535.75 848.24 1507.23 949.36 1507.58 949.36 1535.88" style="fill: #fff;opacity: 0.36;mix-blend-mode: soft-light"/>
                <polygon points="949.36 1575.21 848.24 1575.37 848.24 1546.85 949.36 1546.91 949.36 1575.21" style="fill: #fff;opacity: 0.36;mix-blend-mode: soft-light"/>
                <polygon points="949.36 1614.53 848.24 1614.98 848.24 1586.47 949.36 1586.23 949.36 1614.53" style="fill: #fff;opacity: 0.36;mix-blend-mode: soft-light"/>
                <polygon points="949.36 1653.86 848.24 1654.6 848.24 1626.09 949.36 1625.56 949.36 1653.86" style="fill: #fff;opacity: 0.36;mix-blend-mode: soft-light"/>
                <polygon points="949.36 1693.18 848.24 1694.22 848.24 1665.7 949.36 1664.88 949.36 1693.18" style="fill: #fff;opacity: 0.36;mix-blend-mode: soft-light"/>
                <polygon points="949.36 1732.51 848.24 1733.83 848.24 1705.32 949.36 1704.2 949.36 1732.51" style="fill: #fff;opacity: 0.36;mix-blend-mode: soft-light"/>
                <polygon points="949.36 1771.83 848.24 1773.45 848.24 1744.93 949.36 1743.53 949.36 1771.83" style="fill: #fff;opacity: 0.36;mix-blend-mode: soft-light"/>
                <polygon points="949.36 1811.16 848.24 1813.07 848.24 1784.55 949.36 1782.85 949.36 1811.16" style="fill: #fff;opacity: 0.36;mix-blend-mode: soft-light"/>
                <polygon points="949.36 1850.48 848.24 1852.68 848.24 1824.17 949.36 1822.18 949.36 1850.48" style="fill: #fff;opacity: 0.36;mix-blend-mode: soft-light"/>
                <polygon points="949.36 1889.8 848.24 1892.3 848.24 1863.79 949.36 1861.5 949.36 1889.8" style="fill: #fff;opacity: 0.36;mix-blend-mode: soft-light"/>
                <polygon points="949.36 1929.13 848.24 1931.91 848.24 1903.4 949.36 1900.83 949.36 1929.13" style="fill: #fff;opacity: 0.36;mix-blend-mode: soft-light"/>
                <polygon points="949.36 1968.45 848.24 1971.53 848.24 1943.02 949.36 1940.15 949.36 1968.45" style="fill: #fff;opacity: 0.36;mix-blend-mode: soft-light"/>
                <polygon points="949.36 2007.78 848.24 2011.15 848.24 1982.63 949.36 1979.47 949.36 2007.78" style="fill: #fff;opacity: 0.36;mix-blend-mode: soft-light"/>
                <polygon points="949.36 2047.1 848.24 2050.76 848.24 2022.25 949.36 2018.8 949.36 2047.1" style="fill: #fff;opacity: 0.36;mix-blend-mode: soft-light"/>
                <polygon points="949.36 2086.43 848.24 2090.38 848.24 2061.87 949.36 2058.12 949.36 2086.43" style="fill: #fff;opacity: 0.36;mix-blend-mode: soft-light"/>
                <polygon points="949.36 2125.75 848.24 2130 848.24 2101.49 949.36 2097.45 949.36 2125.75" style="fill: #fff;opacity: 0.36;mix-blend-mode: soft-light"/>
                <polygon points="949.36 2165.07 848.24 2169.61 848.24 2141.1 949.36 2136.77 949.36 2165.07" style="fill: #fff;opacity: 0.36;mix-blend-mode: soft-light"/>
                <polygon points="1246.52 1151.63 970.74 1143.29 970.74 1115.03 1246.52 1123.95 1246.52 1151.63" style="opacity: 0.5;fill: url(#e2e2ec6a-9485-4315-8a43-ef0b1316b60a)"/>
                <polygon points="1453.29 1953.11 1060.98 1965.05 1060.98 1936.98 1453.29 1925.85 1453.29 1953.11" style="fill: #fff;opacity: 0.6000000000000001;mix-blend-mode: soft-light"/>
                <polygon points="1517.61 1988.83 1129.21 2001.78 1129.21 1973.85 1517.61 1961.71 1517.61 1988.83" style="opacity: 0.5;fill: url(#f3aaf8c4-f0db-4fdc-9bbc-8cae501f6c60)"/>
                <polygon points="1517.61 2026.51 1129.21 2040.59 1129.21 2012.66 1517.61 1999.39 1517.61 2026.51" style="opacity: 0.5;fill: url(#bf085c89-bc71-46ba-8878-1e012d5c57f4)"/>
                <polygon points="1684.99 2057.64 1306.64 2072.45 1306.64 2044.89 1684.99 2030.87 1684.99 2057.64" style="opacity: 0.5;fill: url(#f85de5cb-7b82-482b-b117-006080d2bb19)"/>
                <polygon points="1684.99 2094.84 1306.64 2110.74 1306.64 2083.18 1684.99 2068.07 1684.99 2094.84" style="fill: url(#bbc27ccb-d4e6-43fb-968e-c58c03c754ff)"/>
                <polygon points="1684.99 2132.04 1306.64 2149.03 1306.64 2121.47 1684.99 2105.27 1684.99 2132.04" style="fill: #fff;opacity: 0.6000000000000001;mix-blend-mode: soft-light"/>
                <polygon points="1246.52 1920.94 970.74 1928.54 970.74 1900.28 1246.52 1893.25 1246.52 1920.94" style="opacity: 0.5;fill: url(#eb0f0278-4956-43e9-9e08-691adb99299f)"/>
                <polygon points="1453.29 1536.57 1060.98 1536.04 1060.98 1507.96 1453.29 1509.31 1453.29 1536.57" style="opacity: 0.5;fill: url(#bfe29d5b-8344-4f85-a5c9-0b5b3e9928a9)"/>
                <polygon points="1517.61 1574.33 1129.21 1574.93 1129.21 1547 1517.61 1547.21 1517.61 1574.33" style="fill: #fff;opacity: 0.6000000000000001;mix-blend-mode: soft-light"/>
                <polygon points="1517.61 1612.02 1129.21 1613.74 1129.21 1585.81 1517.61 1584.89 1517.61 1612.02" style="opacity: 0.5;fill: url(#a345ca21-790f-4a55-8e9d-a963bd576eba)"/>
                <polygon points="1517.61 1649.7 1129.21 1652.54 1129.21 1624.61 1517.61 1622.58 1517.61 1649.7" style="opacity: 0.5;fill: url(#a6aa8cbe-3754-4b9d-b6f3-f5c1b9e0d773)"/>
                <polygon points="1220.33 1690.41 971.43 1692.96 971.43 1664.7 1220.33 1662.68 1220.33 1690.41" style="opacity: 0.5;fill: url(#eb1133b8-a044-4eb6-9816-336fdecebdeb)"/>
                <polygon points="1336.94 1727.43 1060.98 1731.04 1060.98 1702.97 1336.94 1699.93 1336.94 1727.43" style="fill: #fff;opacity: 0.6000000000000001;mix-blend-mode: soft-light"/>
                <polygon points="1480.31 1763.34 1129.21 1768.95 1129.21 1741.03 1480.31 1736.14 1480.31 1763.34" style="fill: url(#fc8b27dd-ba31-4809-bffd-21c52bc40bf3)"/>
                <polygon points="1480.31 1801.13 1129.21 1807.76 1129.21 1779.83 1480.31 1773.93 1480.31 1801.13" style="opacity: 0.5;fill: url(#af671d5a-b6a7-4c96-b3a0-1c47fa90d36b)"/>
                <polygon points="1558.14 1837.22 1211.27 1844.78 1211.27 1817.02 1558.14 1810.18 1558.14 1837.22" style="opacity: 0.5;fill: url(#b37c4338-401d-4967-abbf-1f2699bbc347)"/>
                <polygon points="1558.14 1874.79 1211.27 1883.34 1211.27 1855.59 1558.14 1847.75 1558.14 1874.79" style="opacity: 0.5;fill: url(#fff40c52-b1b1-4381-9b78-ddf7bb0b1e08)"/>
                <polygon points="1246.52 1497.82 970.74 1496.65 970.74 1468.39 1246.52 1470.14 1246.52 1497.82" style="fill: url(#a9dbeadb-de23-4433-9e21-ad7cd0f31ada)"/>
                <polygon points="743.22 1211.33 492.67 1205.11 492.67 1163.92 743.22 1170.88 743.22 1211.33" style="fill: #fff;mix-blend-mode: soft-light"/>
                <polygon points="427.87 1203.5 475.05 1204.67 475.05 1163.43 427.87 1162.12 427.87 1203.5" style="fill: #fff;opacity: 0.6000000000000001;mix-blend-mode: soft-light"/>
                <polygon points="743.22 1269.48 492.67 1264.32 492.67 1223.13 743.22 1229.03 743.22 1269.48" style="fill: #fff;opacity: 0.6000000000000001;mix-blend-mode: soft-light"/>
                <polygon points="427.87 1262.98 475.05 1263.95 475.05 1222.71 427.87 1221.6 427.87 1262.98" style="fill: #fff;opacity: 0.6000000000000001;mix-blend-mode: soft-light"/>
                <polygon points="743.22 1327.63 492.67 1323.52 492.67 1282.33 743.22 1287.18 743.22 1327.63" style="fill: #fff;opacity: 0.6000000000000001;mix-blend-mode: soft-light"/>
                <polygon points="427.87 1322.46 475.05 1323.23 475.05 1281.99 427.87 1281.08 427.87 1322.46" style="fill: #fff;opacity: 0.6000000000000001;mix-blend-mode: soft-light"/>
                <polygon points="743.22 1740.4 305.49 1746.3 305.49 1704.57 743.22 1699.95 743.22 1740.4" style="fill: #fff;mix-blend-mode: soft-light"/>
                <polygon points="743.22 1803.61 492.67 1808.13 492.67 1766.94 743.22 1763.15 743.22 1803.61" style="fill: #fff;opacity: 0.6000000000000001;mix-blend-mode: soft-light"/>
                <polygon points="427.87 1809.3 475.05 1808.45 475.05 1767.21 427.87 1767.93 427.87 1809.3" style="fill: #fff;opacity: 0.6000000000000001;mix-blend-mode: soft-light"/>
                <polygon points="743.22 1861.76 492.67 1867.34 492.67 1826.15 743.22 1821.31 743.22 1861.76" style="fill: #fff;opacity: 0.6000000000000001;mix-blend-mode: soft-light"/>
                <polygon points="427.87 1868.78 475.05 1867.73 475.05 1826.49 427.87 1827.4 427.87 1868.78" style="fill: #fff;opacity: 0.6000000000000001;mix-blend-mode: soft-light"/>
                <polygon points="743.22 1919.91 492.67 1926.54 492.67 1885.36 743.22 1879.46 743.22 1919.91" style="fill: #fff;opacity: 0.6000000000000001;mix-blend-mode: soft-light"/>
                <polygon points="427.87 1928.26 475.05 1927.01 475.05 1885.77 427.87 1886.88 427.87 1928.26" style="fill: #fff;opacity: 0.6000000000000001;mix-blend-mode: soft-light"/>
                <polygon points="743.22 1386.18 305.49 1380.85 305.49 1339.11 743.22 1345.72 743.22 1386.18" style="fill: #fff;mix-blend-mode: soft-light"/>
                <polygon points="743.22 1449.38 492.67 1447.48 492.67 1406.3 743.22 1408.93 743.22 1449.38" style="fill: #fff;opacity: 0.6000000000000001;mix-blend-mode: soft-light"/>
                <polygon points="427.87 1446.99 475.05 1447.35 475.05 1406.11 427.87 1405.61 427.87 1446.99" style="fill: #fff;opacity: 0.6000000000000001;mix-blend-mode: soft-light"/>
                <polygon points="743.22 1507.54 492.67 1506.69 492.67 1465.5 743.22 1467.08 743.22 1507.54" style="fill: #fff;opacity: 0.6000000000000001;mix-blend-mode: soft-light"/>
                <polygon points="427.87 1506.47 475.05 1506.63 475.05 1465.39 427.87 1465.09 427.87 1506.47" style="fill: #fff;opacity: 0.6000000000000001;mix-blend-mode: soft-light"/>
                <polygon points="743.22 1624.59 492.67 1625.87 492.67 1584.68 743.22 1584.14 743.22 1624.59" style="fill: #fff;opacity: 0.6000000000000001;mix-blend-mode: soft-light"/>
                <polygon points="427.87 1626.2 475.05 1625.96 475.05 1584.72 427.87 1584.82 427.87 1626.2" style="fill: #fff;opacity: 0.6000000000000001;mix-blend-mode: soft-light"/>
                <polygon points="743.22 1682.74 492.67 1685.07 492.67 1643.89 743.22 1642.29 743.22 1682.74" style="fill: #fff;opacity: 0.6000000000000001;mix-blend-mode: soft-light"/>
                <polygon points="427.87 1685.68 475.05 1685.24 475.05 1644 427.87 1644.3 427.87 1685.68" style="fill: #fff;opacity: 0.6000000000000001;mix-blend-mode: soft-light"/>
                <polygon points="743.22 1565.69 492.67 1565.89 492.67 1524.71 743.22 1525.23 743.22 1565.69" style="fill: #fff;opacity: 0.6000000000000001;mix-blend-mode: soft-light"/>
                <polygon points="427.87 1565.95 475.05 1565.91 475.05 1524.67 427.87 1524.57 427.87 1565.95" style="fill: #fff;opacity: 0.6000000000000001;mix-blend-mode: soft-light"/>
                <polygon points="743.22 1978.04 305.49 1991.47 305.49 1949.74 743.22 1937.59 743.22 1978.04" style="fill: #fff;mix-blend-mode: soft-light"/>
                <polygon points="743.22 2041.25 492.67 2050.08 492.67 2008.9 743.22 2000.79 743.22 2041.25" style="fill: #fff;opacity: 0.6000000000000001;mix-blend-mode: soft-light"/>
                <polygon points="427.87 2052.37 475.05 2050.7 475.05 2009.47 427.87 2010.99 427.87 2052.37" style="fill: #fff;opacity: 0.6000000000000001;mix-blend-mode: soft-light"/>
                <polygon points="743.22 2099.4 492.67 2109.29 492.67 2068.1 743.22 2058.94 743.22 2099.4" style="fill: #fff;opacity: 0.6000000000000001;mix-blend-mode: soft-light"/>
                <polygon points="427.87 2111.85 475.05 2109.98 475.05 2068.75 427.87 2070.47 427.87 2111.85" style="fill: #fff;opacity: 0.6000000000000001;mix-blend-mode: soft-light"/>
                <polygon points="743.22 2157.55 492.67 2168.49 492.67 2127.31 743.22 2117.09 743.22 2157.55" style="fill: #fff;opacity: 0.6000000000000001;mix-blend-mode: soft-light"/>
                <polygon points="427.87 2171.33 475.05 2169.26 475.05 2128.03 427.87 2129.95 427.87 2171.33" style="fill: #fff;opacity: 0.6000000000000001;mix-blend-mode: soft-light"/>
                <polygon points="796.41 2155.42 786.77 2155.84 786.77 1109.08 796.41 1109.39 796.41 2155.42" style="fill: #fff;opacity: 0.6000000000000001;mix-blend-mode: soft-light"/>
              </g>
              <path d="M1992.46,2204.09c-425,8.88-520.58,69.57-641.34-3.14-165.94-99.92-90.37-277.65-252-370.88-203.27-117.2-437.62,97.45-543.71-7.2-105.64-104.22,93.93-349.5-21.6-622.92C487.4,1090.23,408.45,1019,353.92,978.1l-110-4.77c-42.22-1.83-76.76,26.12-76.76,62.32V2340.16c0,36.19,34.54,63.58,76.76,61.06l1952.37-116.39c31-1.84,56.1-28.38,56.1-59.17v-19.72C2193.86,2203.86,2103.22,2201.77,1992.46,2204.09Z" style="fill: #fff;opacity: 0.6000000000000001;mix-blend-mode: soft-light"/>
            </g>
          </g>
          <g>
            <g>
              <path d="M1608.11,721.77A19.11,19.11,0,0,1,1591,710.25L1484.3,470.71a20.46,20.46,0,0,1-1.76-8.26V214.72c0-10.81,8.52-19.3,19-19s19,9.37,19,20.16V459l104.65,235.34c4.36,9.81.25,21.33-9.18,25.73A18.2,18.2,0,0,1,1608.11,721.77Z" style="fill: #d8dee8"/>
              <path d="M1883.55,725.4c-10.17-.12-18.42-8.85-18.42-19.49v-124L1767.7,478.27a20.16,20.16,0,0,1-5.44-13.8V224.36c0-10.68,8.31-19.07,18.56-18.74s18.54,9.26,18.54,19.92V457.3l97.19,103.54a20.07,20.07,0,0,1,5.39,13.71V706.39C1901.94,717,1893.71,725.53,1883.55,725.4Z" style="fill: #d8dee8"/>
              <path d="M2031.56,727c-10.07-.12-18.23-8.8-18.23-19.39V497.71a19.25,19.25,0,0,1,5.34-13.44L2079.23,422V233.79c0-10.56,8.12-18.86,18.13-18.53s18.11,9.14,18.11,19.68v195.8a19.2,19.2,0,0,1-5.3,13.38l-60.4,62.29V708C2049.77,718.6,2041.62,727.08,2031.56,727Z" style="fill: #d8dee8"/>
              <path d="M1465.82,1991c-10.6.4-19.19-8.09-19.19-19V1775.49a20.48,20.48,0,0,1,5.62-14.07l80.88-85.12V1501.87c0-10.83,8.54-19.75,19.06-19.93a18.9,18.9,0,0,1,19,19.24v182.28a20.36,20.36,0,0,1-5.58,14L1485,1782.53v188.08C1485,1981.45,1476.4,1990.56,1465.82,1991Z" style="fill: #d8dee8"/>
              <path d="M1771.79,1979.63a17.64,17.64,0,0,1-13.24-5.2c-7.33-7.32-7.33-19.63,0-27.48l105.53-113.17V1495.86c0-10.68,8.32-19.49,18.58-19.67s18.55,8.33,18.55,19v345.43a20.34,20.34,0,0,1-5.43,13.83l-110.76,119A19,19,0,0,1,1771.79,1979.63Z" style="fill: #d8dee8"/>
              <path d="M2070.61,1968.57a17.19,17.19,0,0,1-12.94-5.15c-7.15-7.23-7.15-19.4,0-27.15l116.14-126v-84.45L2004.9,1552.53c-7.18-7.37-7.18-19.56,0-27.21a17.8,17.8,0,0,1,26-.51l173.86,178.78A19.18,19.18,0,0,1,2210,1717V1817.1a20.28,20.28,0,0,1-5.3,13.67l-121.2,131.7A18.5,18.5,0,0,1,2070.61,1968.57Z" style="fill: #d8dee8"/>
              <path d="M2375.69,931.57l-183.76-.75c-10,0-18.12-8.64-18.12-19.19s8.12-19.07,18.12-19l176.37,1,107.28-113.32a17,17,0,0,1,12.52-5.41l175.63,1.83c9.63.1,17.43,8.57,17.43,18.91s-7.8,18.67-17.43,18.58l-168.3-1.5L2388.31,926.07A17.26,17.26,0,0,1,2375.69,931.57Z" style="fill: #d8dee8"/>
              <path d="M2221.34,1304.42a17.37,17.37,0,0,1-12.79-5.46,19.82,19.82,0,0,1,0-27l175.23-186.56a17.32,17.32,0,0,1,12.61-5.57l267.34-.5c9.63,0,17.43,8.35,17.43,18.7s-7.8,18.75-17.43,18.79l-260,.87-169.66,181A17.73,17.73,0,0,1,2221.34,1304.42Z" style="fill: #d8dee8"/>
              <path d="M2336.08,1524.64l-144.15,2.83c-10,.2-18.12-8.2-18.12-18.76s8.12-19.26,18.12-19.44l136.73-2.48,88.83-95.79a17.49,17.49,0,0,1,12.58-5.72l233.66-3.3c9.63-.14,17.43,8.14,17.43,18.48s-7.8,18.85-17.43,19l-226.3,3.54-88.69,95.83A17.74,17.74,0,0,1,2336.08,1524.64Z" style="fill: #d8dee8"/>
              <path d="M2738.54,796.17c0,44.39-33.44,80.17-74.8,79.9s-75.26-36.69-75.26-81.35,33.75-80.44,75.26-79.9S2738.54,751.77,2738.54,796.17Z" style="fill: #d8dee8"/>
              <path d="M2738.54,1097.89c0,44.39-33.44,80.58-74.8,80.82s-75.26-35.77-75.26-80.43,33.75-80.85,75.26-80.82S2738.54,1053.49,2738.54,1097.89Z" style="fill: #d8dee8"/>
              <path d="M2738.54,1399.61c0,44.39-33.44,81-74.8,81.74s-75.26-34.84-75.26-79.51,33.75-81.26,75.26-81.75S2738.54,1355.21,2738.54,1399.61Z" style="fill: #d8dee8"/>
              <path d="M1501.55,131.17c45.06,1.58,81.47,40.41,81.47,86.74s-36.41,82.84-81.47,81.56c-45.21-1.29-82-40.13-82-86.75S1456.34,129.59,1501.55,131.17Z" style="fill: #d8dee8"/>
              <path d="M1780.82,141.8c44,1.54,79.56,39.9,79.56,85.68s-35.56,81.88-79.56,80.63-80.06-39.63-80.06-85.7S1736.67,140.25,1780.82,141.8Z" style="fill: #d8dee8"/>
              <path d="M2097.36,152.18c43,1.5,77.72,39.4,77.72,84.65s-34.73,80.95-77.72,79.72-78.2-39.14-78.2-84.67S2054.23,150.66,2097.36,152.18Z" style="fill: #d8dee8"/>
              <path d="M1465.82,1886.76c45.48-1.5,82.23,35,82.23,81.56s-36.75,85.72-82.23,87.52c-45.64,1.81-82.76-34.7-82.76-81.54S1420.18,1888.26,1465.82,1886.76Z" style="fill: #d8dee8"/>
              <path d="M1771.79,1876.67c44.41-1.47,80.3,34.63,80.3,80.63s-35.89,84.69-80.3,86.45-80.8-34.33-80.8-80.61S1727.23,1878.14,1771.79,1876.67Z" style="fill: #d8dee8"/>
              <path d="M2070.61,1866.81c43.38-1.43,78.44,34.26,78.44,79.72s-35.06,83.7-78.44,85.41c-43.53,1.72-78.92-34-78.92-79.7S2027.08,1868.25,2070.61,1866.81Z" style="fill: #d8dee8"/>
            </g>
            <path d="M2175,620.88,1420.81,598c-34.27-1-62.15,27.42-62.15,63.56v835.11c0,36.14,27.88,64.67,62.15,63.71l754.17-21c31.09-.86,56.2-29.32,56.2-63.56V684.59C2231.18,650.34,2206.07,621.82,2175,620.88Z" style="fill: url(#ae83746a-645d-4310-8f5a-63fc0da975db)"/>
            <path d="M2207.05,620.88,1452.89,598c-34.27-1-62.15,27.42-62.15,63.56v835.11c0,36.14,27.88,64.67,62.15,63.71l754.16-21c31.09-.86,56.21-29.32,56.21-63.56V684.59C2263.26,650.34,2238.14,621.82,2207.05,620.88Z" style="fill: url(#ae033803-b623-4eeb-aae1-eaa0251c66c6)"/>
            <path d="M2053.07,791.39l-469.66-9.09c-21-.41-38,17.33-38,39.61v514.86c0,22.28,17,40.06,38,39.71l469.66-7.92c19.72-.33,35.67-18.06,35.67-39.61V831.1C2088.74,809.55,2072.79,791.78,2053.07,791.39Z" style="fill: url(#a2f11994-971e-4c6a-b57a-1a30fd1ac0c3)"/>
            <g style="opacity: 0.30000000000000004;mix-blend-mode: multiply">
              <path d="M1908,1116.8c-36.62-189.66-240.26-206.93-293.25-399-10.69-38.74-13.25-77.48-10.18-115.23L1452.89,598c-34.27-1-62.15,27.42-62.15,63.56v835.11c0,36.14,27.88,64.67,62.15,63.71l428-11.9a478.07,478.07,0,0,1-17.22-83.88C1844.64,1294.68,1933.63,1249.3,1908,1116.8Z" style="fill: url(#a1779b72-7f5c-45b1-9d5b-61347c1ac0c8)"/>
            </g>
            <path d="M2085.15,791.39l-469.66-9.09c-21-.41-38,17.33-38,39.61v514.86c0,22.28,17,40.06,38,39.71l469.66-7.92c19.72-.33,35.66-18.06,35.66-39.61V831.1C2120.81,809.55,2104.87,791.78,2085.15,791.39Z" style="fill: url(#bb17e404-aacf-44f2-831a-b96e8af5ed4c)"/>
            <g style="opacity: 0.30000000000000004;mix-blend-mode: multiply">
              <path d="M1984.5,1116.8c-31.89-165.13-190.38-199.6-265.82-332.5l-103.19-2c-21-.41-38,17.33-38,39.61v514.86c0,22.28,17,40.06,38,39.71l325.07-5.48C1953.82,1271.44,2004.64,1221.09,1984.5,1116.8Z" style="fill: url(#bb9fd7ad-877b-4b12-89e1-c4b53d19c15e)"/>
            </g>
          </g>
          <g>
            <path d="M1938.85,2284.62l-1.67,49.05c-.49,14.39,11.06,25.53,25.78,24.87l26.75-1.19a301.13,301.13,0,0,0,15.11,66.91l-22.59,13.56c-13,7.78-17.89,23.9-11,36l23.61,41.21c6.92,12.08,40.32,19.26,53.26,11.45l4.08-16.61A291.36,291.36,0,0,0,2101,2558l-12.36,20.45c-7.73,12.78-3.94,28.42,8.47,34.93l42.22,22.16c12.37,6.48,52.52,7.49,60.22-5.27l-12.06-25.74a311.83,311.83,0,0,0,69.18,15l-.74,21.73c-.49,14.26,10.84,25.19,25.3,24.42l49.2-2.64c14.41-.77,26.47-12.92,26.95-27.14l.74-21.67a349.41,349.41,0,0,0,69.78-22.15l10.39,18.36c6.74,11.91,48.15,18,60.77,10.3l17.29-29.09c12.59-7.72,17.35-23.61,10.64-35.5l-10.74-19a366.37,366.37,0,0,0,50.93-52.36l20,10.69c12.06,6.46,47.78,9.76,55.29-2.82l5.71-51.09c7.49-12.55,3.82-28-8.2-34.44l-21-11.31a335.83,335.83,0,0,0,19.08-67.28l25.76-1.15a28.12,28.12,0,0,0,26.47-26.66l1.64-48a23.33,23.33,0,0,0-24.73-24.44l-27.27,1.13a299.83,299.83,0,0,0-16.19-64l25-15.05c12.5-7.54,17.23-23.32,10.57-35.26l4.75-47.73c-6.67-12-49.71-8.58-62.25-1.06L2575.51,2082a291.29,291.29,0,0,0-46.09-44.61l16.18-26.84c7.54-12.51,3.85-28-8.25-34.68l-18-26c-12.14-6.67-51.43,1.41-59,13.94l-16.63,27.5a310.67,310.67,0,0,0-63.85-14.56l1.07-31.49c.49-14.22-10.78-25.36-25.18-24.89l-49.16,1.62c-14.45.47-26.56,12.41-27.05,26.67l-1.07,31.58a347.61,347.61,0,0,0-65.6,19.12l9.77-33.31c-6.85-12.14-47.58-9.12-60.42-1.55l-43.86,25.87c-12.89,7.6-17.77,23.62-10.89,35.77l14.75,26a367.4,367.4,0,0,0-50.5,48.78l1.11-16.69c-12.45-6.71-56,.82-63.74,13.53l-26.49,43.37c-7.77,12.74-3.95,28.49,8.53,35.17l24.88,13.32a339.22,339.22,0,0,0-21.29,66.67l-28.32,1.19C1951.68,2258.06,1939.34,2270.23,1938.85,2284.62Zm181.53,21.59c3.68-107.92,95.55-198.78,204.6-202.91,108.4-4.1,192.84,79.11,189.2,185.85s-94,197.53-202.43,202.81C2202.65,2497.28,2116.71,2414.13,2120.38,2306.21Z" style="fill: url(#f64f3927-a041-40ed-be0f-9a15d293ba53)"/>
            <path d="M1971.8,2284.2l-1.67,49.05c-.49,14.4,11,25.53,25.77,24.87l26.75-1.19a301,301,0,0,0,15.12,66.91l-22.6,13.56c-13,7.78-17.88,23.91-11,36l23.6,41.21c6.92,12.08,23,15.54,36,7.74l21.38-12.89a291.3,291.3,0,0,0,48.81,48.06L2121.61,2578c-7.73,12.78-3.93,28.43,8.48,34.94l42.22,22.15c12.37,6.49,28.62,1.4,36.32-11.36l11.84-19.65a311.74,311.74,0,0,0,69.17,15l-.74,21.73c-.48,14.26,10.85,25.19,25.31,24.42l49.2-2.63c14.4-.77,26.46-12.92,27-27.14l.74-21.67a349.13,349.13,0,0,0,69.77-22.16l10.4,18.36c6.74,11.91,22.45,15.29,35.07,7.55l43-26.34c12.59-7.72,17.36-23.6,10.65-35.5l-10.75-19a367.49,367.49,0,0,0,50.94-52.36l20,10.68c12.06,6.46,27.91,1.5,35.42-11.08l25.57-42.82c7.5-12.56,3.83-28-8.2-34.45l-21-11.3A336.77,336.77,0,0,0,2671,2328l25.76-1.15c14.14-.63,26-12.56,26.47-26.65l1.64-48a23.33,23.33,0,0,0-24.73-24.44l-27.28,1.14a299.17,299.17,0,0,0-16.19-64l25-15.05c12.5-7.54,17.23-23.32,10.57-35.26l-22.72-40.74c-6.68-12-22.24-15.57-34.78-8l-26.27,15.76a291.77,291.77,0,0,0-46.09-44.62l16.18-26.84c7.54-12.5,3.84-28-8.26-34.68l-41.31-22.7c-12.13-6.67-28.12-1.93-35.69,10.6l-16.63,27.5a311.48,311.48,0,0,0-63.85-14.56l1.07-31.48c.48-14.22-10.79-25.37-25.18-24.89l-49.16,1.61c-14.45.47-26.56,12.41-27.05,26.67l-1.08,31.58a347.52,347.52,0,0,0-65.59,19.12l-15-26.6c-6.84-12.13-22.8-15.83-35.65-8.25l-43.86,25.87c-12.88,7.6-17.76,23.62-10.88,35.77l14.75,26a366.82,366.82,0,0,0-50.51,48.77l-26-14c-12.45-6.7-28.83-1.84-36.6,10.87l-26.48,43.38c-7.78,12.73-4,28.48,8.53,35.17l24.88,13.32a337.68,337.68,0,0,0-21.29,66.67l-28.32,1.18C1984.63,2257.64,1972.29,2269.81,1971.8,2284.2Zm181.53,21.59c3.67-107.92,95.55-198.78,204.6-202.91,108.39-4.1,192.83,79.12,189.2,185.86s-94,197.52-202.44,202.81C2235.6,2496.86,2149.65,2413.71,2153.33,2305.79Z" style="fill: url(#eceae827-629c-442e-98f8-29020f515747)"/>
          </g>
        </g>
      </g>
    </g>
  </g>
</svg>
