<svg xmlns="http://www.w3.org/2000/svg" xmlns:xlink="http://www.w3.org/1999/xlink" viewBox="0 0 781.61 493.6">
  <defs>
    <linearGradient id="b21c82ed-ae4f-4054-973f-c28b82e40e98" x1="298.68" y1="403.1" x2="488.58" y2="-182.22" gradientUnits="userSpaceOnUse">
      <stop offset="0" stop-color="#003a45"/>
      <stop offset="1" stop-color="#006d8b"/>
    </linearGradient>
    <linearGradient id="fa34fb79-fa2e-484f-8cf1-e17fe35b45d8" x1="547.85" y1="369.73" x2="643.69" y2="369.73" xlink:href="#b21c82ed-ae4f-4054-973f-c28b82e40e98"/>
    <linearGradient id="fd7b4b7a-384e-44b1-8bc9-07a4a6e7aef7" x1="-1022.49" y1="1641.07" x2="-1027.5" y2="1658.61" gradientTransform="matrix(-0.16, -0.99, -0.99, 0.16, 1823.21, -808.08)" gradientUnits="userSpaceOnUse">
      <stop offset="0" stop-color="#f0877e"/>
      <stop offset="1" stop-color="#fabeb2"/>
    </linearGradient>
    <linearGradient id="fedb32de-7edf-419a-8c03-bd553447f65e" x1="2517.54" y1="1785.39" x2="2561.69" y2="1806.19" gradientTransform="translate(1573.75 -2405.88) rotate(77.97)" gradientUnits="userSpaceOnUse">
      <stop offset="0" stop-color="#00c3e7"/>
      <stop offset="1" stop-color="#0063b9"/>
    </linearGradient>
    <linearGradient id="e00961a6-174d-4f25-95b6-3b9ad4537689" x1="590.73" y1="435.48" x2="317.95" y2="466.86" gradientUnits="userSpaceOnUse">
      <stop offset="0" stop-color="#0063b9"/>
      <stop offset="1" stop-color="#00c3e7"/>
    </linearGradient>
    <linearGradient id="a5122b33-7240-4eca-9008-a6404ac3a048" x1="561.57" y1="451.84" x2="491.5" y2="459.89" xlink:href="#e00961a6-174d-4f25-95b6-3b9ad4537689"/>
    <linearGradient id="b44fa565-9974-469b-a8a5-dd0182efc9a1" x1="561.28" y1="413.32" x2="517.37" y2="300.7" gradientUnits="userSpaceOnUse">
      <stop offset="0" stop-color="#e75100"/>
      <stop offset="1" stop-color="#ffa345"/>
    </linearGradient>
    <linearGradient id="ad94d04c-492d-4313-aae0-498ed9f914b0" x1="211.58" y1="415.59" x2="110.42" y2="419.55" gradientTransform="translate(156.97 152.47) rotate(-38.53)" xlink:href="#fd7b4b7a-384e-44b1-8bc9-07a4a6e7aef7"/>
    <linearGradient id="b77b43b6-d7f9-42cb-a1b0-fb9afd2d3ef7" x1="-1068.08" y1="1737.22" x2="-1073.62" y2="1756.58" gradientTransform="matrix(0, -1, -1, 0, 2084.87, -597.77)" xlink:href="#fd7b4b7a-384e-44b1-8bc9-07a4a6e7aef7"/>
    <linearGradient id="a2db1f46-e9af-43e9-b036-b4e729ad1155" x1="2556.5" y1="1881.4" x2="2603.18" y2="1903.4" gradientTransform="translate(2089.85 -2215.89) rotate(87.05)" xlink:href="#fedb32de-7edf-419a-8c03-bd553447f65e"/>
    <linearGradient id="a0ca4b49-f95c-4329-b3ac-1402902ee285" x1="3694.24" y1="291.51" x2="3736.19" y2="222.94" gradientTransform="matrix(-1, 0, 0, 1, 4298.03, -5.7)" gradientUnits="userSpaceOnUse">
      <stop offset="0" stop-color="#5c1a00"/>
      <stop offset="1" stop-color="#b94300"/>
    </linearGradient>
    <linearGradient id="b4bebfc3-8868-4a15-ada0-36c7f63361e5" x1="3353.39" y1="570.63" x2="3522.7" y2="615.14" gradientTransform="matrix(-0.99, -0.12, -0.12, 0.99, 3987.28, 305.94)" xlink:href="#e00961a6-174d-4f25-95b6-3b9ad4537689"/>
    <linearGradient id="b4cbd384-59c9-4d09-a7b6-0e0c209b4bc9" x1="-2379.62" y1="683.38" x2="-2378.5" y2="706.85" gradientTransform="translate(3037.41 -91.73) rotate(7.12)" xlink:href="#fd7b4b7a-384e-44b1-8bc9-07a4a6e7aef7"/>
    <linearGradient id="ecac3e2a-0996-42d4-be7b-6ca6e0a44c3a" x1="586.56" y1="446.41" x2="587" y2="330.2" gradientUnits="userSpaceOnUse">
      <stop offset="0" stop-color="#e75b00"/>
      <stop offset="1" stop-color="#ffa345"/>
    </linearGradient>
    <linearGradient id="bc6afb44-8dc4-4a1d-bc0e-3d3c71121e62" x1="-2402.06" y1="758.06" x2="-2402.13" y2="757.61" gradientTransform="translate(3037.41 -91.73) rotate(7.12)" xlink:href="#ecac3e2a-0996-42d4-be7b-6ca6e0a44c3a"/>
    <linearGradient id="b7e2b0b2-9f6d-424b-a369-d0c95ddc25c3" x1="-2423.8" y1="740.46" x2="-2424.02" y2="741.05" gradientTransform="translate(3037.41 -91.73) rotate(7.12)" gradientUnits="userSpaceOnUse">
      <stop offset="0" stop-color="#00d1d0"/>
      <stop offset="1" stop-color="#0098d0"/>
    </linearGradient>
    <linearGradient id="baba7ff6-cf9f-4edc-b100-94b63cbd8bc1" x1="3732.8" y1="724.75" x2="3737.92" y2="772.36" gradientTransform="matrix(-0.96, 0.02, -0.01, 0.86, 4167.7, -452.21)" xlink:href="#fd7b4b7a-384e-44b1-8bc9-07a4a6e7aef7"/>
    <linearGradient id="a9fade80-1cbd-4a17-988c-7b99e5e04f81" x1="3810.52" y1="69.9" x2="3853.91" y2="-1.03" gradientTransform="matrix(-0.99, 0.14, 0.14, 0.99, 4379.44, -297.69)" xlink:href="#a0ca4b49-f95c-4329-b3ac-1402902ee285"/>
    <linearGradient id="a705c064-5c9b-4add-a51b-30b5e350ce7b" x1="572.29" y1="458.63" x2="539.27" y2="400.41" gradientUnits="userSpaceOnUse">
      <stop offset="0" stop-color="#46008b"/>
      <stop offset="1" stop-color="#ff45d2"/>
    </linearGradient>
    <linearGradient id="a97ebaee-3c20-4016-8235-93416265f055" x1="434.34" y1="488.24" x2="534.15" y2="380.61" xlink:href="#a705c064-5c9b-4add-a51b-30b5e350ce7b"/>
    <linearGradient id="e36b539a-f0b9-4ed9-9b3e-03400944f12f" x1="545.39" y1="388.53" x2="622.65" y2="388.53" xlink:href="#ecac3e2a-0996-42d4-be7b-6ca6e0a44c3a"/>
    <linearGradient id="a254ac7b-ec70-4f0c-adf7-f9f1e25ec4d4" x1="248.48" y1="460.83" x2="147.32" y2="464.78" gradientTransform="translate(156.97 152.47) rotate(-38.53)" xlink:href="#fd7b4b7a-384e-44b1-8bc9-07a4a6e7aef7"/>
    <linearGradient id="a8a5a2df-64d2-4001-8297-47ff91e8607d" x1="600.38" y1="446.46" x2="600.81" y2="330.25" xlink:href="#b44fa565-9974-469b-a8a5-dd0182efc9a1"/>
  </defs>
  <g style="isolation: isolate">
    <g id="b8b811d8-f330-4d21-b581-40e99ba90857" data-name="Calque 2">
      <g id="a67b0320-0c8c-4d06-9cd4-efe4d7c4b27f" data-name="69">
        <g id="ee70ee45-2426-40ae-9e7d-d6a6045e8d0b" data-name="3">
          <g>
            <g>
              <path d="M691.07,18A18.08,18.08,0,0,0,672.91,0H18.16A18.08,18.08,0,0,0,0,18V52.44H691.07Z" style="fill: #3e8bba"/>
              <g>
                <path d="M0,52.44V462.1a18.08,18.08,0,0,0,18.16,18H672.91a18.08,18.08,0,0,0,18.16-18V52.44Z" style="fill: url(#b21c82ed-ae4f-4054-973f-c28b82e40e98)"/>
                <g>
                  <rect x="61.4" y="116.27" width="159.98" height="13.71" style="fill: #49c1ea"/>
                  <rect x="61.4" y="191.76" width="166.22" height="13.71" style="fill: #68d359"/>
                  <rect x="236.91" y="191.76" width="166.22" height="13.71" style="fill: #ffd07d"/>
                  <rect x="60.86" y="163.59" width="67.86" height="13.71" style="fill: #ffd07d"/>
                  <rect x="141.39" y="163.59" width="50.12" height="13.71" style="fill: #49c1ea"/>
                  <rect x="202.56" y="163.59" width="25.06" height="13.71" style="fill: #ff7b7b"/>
                  <rect x="236.91" y="163.59" width="25.06" height="13.71" style="fill: #49c1ea"/>
                  <rect x="271.25" y="163.59" width="89.02" height="13.71" style="fill: #ff7b7b"/>
                  <rect x="61.4" y="271.17" width="33.39" height="13.71" style="fill: #49c1ea"/>
                  <rect x="108" y="377.03" width="33.39" height="13.71" style="fill: #ff7b7b"/>
                  <rect x="61.4" y="402.56" width="33.39" height="13.71" style="fill: #68d359"/>
                  <rect x="108" y="271.17" width="107.1" height="13.71" style="fill: #68d359"/>
                  <rect x="128.72" y="297.73" width="274.41" height="14.29" style="fill: #ffd07d"/>
                  <rect x="128.72" y="324.33" width="198.01" height="13.71" style="fill: #49c1ea"/>
                  <rect x="340.52" y="324.33" width="198.01" height="13.71" style="fill: #49c1ea"/>
                  <rect x="128.72" y="350.93" width="191.3" height="13.71" style="fill: #ffd07d"/>
                  <rect x="60.86" y="243" width="67.86" height="13.71" style="fill: #ff7b7b"/>
                  <rect x="141.39" y="243" width="120.58" height="13.71" style="fill: #49c1ea"/>
                </g>
                <g>
                  <ellipse cx="609.83" cy="26.22" rx="10.47" ry="10.38" style="fill: #ffd07d"/>
                  <ellipse cx="645.09" cy="26.22" rx="10.47" ry="10.38" style="fill: #ff7b7b"/>
                  <ellipse cx="574.57" cy="26.22" rx="10.47" ry="10.38" style="fill: #68d359"/>
                </g>
              </g>
            </g>
            <g>
              <path d="M624.49,257.17s24.76,17.2,18,63.2-10.85,49.9-5.51,62.21,5.68,93.07-31.76,103.24-57.41,7.46-57.41,7.46L591,245.85Z" style="opacity: 0.5;mix-blend-mode: multiply;fill: url(#fa34fb79-fa2e-484f-8cf1-e17fe35b45d8)"/>
              <g>
                <g>
                  <g>
                    <path d="M362.14,460.38c-3.47,2.56-5.55.71-9.48,4.48-1.72,1.65-.92,14.39,5.93,13.37a77.45,77.45,0,0,0,6.57-4.89q-.65-5.43-1.3-10.85A22.12,22.12,0,0,1,362.14,460.38Z" style="fill: url(#fd7b4b7a-384e-44b1-8bc9-07a4a6e7aef7)"/>
                    <path d="M331.3,443.8c3.8,14.38,8.42,28.82,15.14,42,4.89-1.41,9-3.36,12.09-7.43-.47.23-1.73-.8-1.95-1a8.13,8.13,0,0,1-1.76-2c-1.66-2.81-1.47-5.46-1.7-8.65-.47-6.61-.89-12.87-5.24-18.36-2.7-3.41-6.47-4.71-11-5.3A37.25,37.25,0,0,0,331.3,443.8Z" style="fill: url(#fedb32de-7edf-419a-8c03-bd553447f65e)"/>
                  </g>
                  <path d="M600.4,450.13c-1.36,1.07-2.79,2.09-4.29,3.09-12.33,8.18-26,11.13-40.83,9.91-20.61-1.68-41.12-4.33-61.63-6.92-19.17-2.43-36.23-5.58-55.18,1.18-7.38,2.63-14.89,4.19-22.59,5.75-8.73,1.78-17.51,3.35-26.25,5.07-2.6.52-23.72,6.69-24.69,5.56-3.06-3.58-5.67-7.75-4.62-12.62,11.89-6,22.58-11.34,32.92-16l.13-.06A417.79,417.79,0,0,1,436,430.55c22.94-6.37,109.39-10.29,109.39-10.29l5.75-2.28c3.38.34,6.76.68,10.61,1,2.71-1.67,6.33-3.91,10.15-6.31Z" style="fill: url(#e00961a6-174d-4f25-95b6-3b9ad4537689)"/>
                </g>
                <path d="M552.07,448.61s10.53,3,10.26-2.36c-.11-2.18-.13-4.48-.12-6.44a3.41,3.41,0,0,0-4.57-3.22c-9.89,3.52-33.81,11.33-56.37,13.37l46,19.31Z" style="opacity: 0.5;mix-blend-mode: multiply;fill: url(#a5122b33-7240-4eca-9008-a6404ac3a048)"/>
                <g>
                  <path d="M559.14,332l-2.28-.86c-.22,6.53-8.93,27.62-12.73,36.57-1.08,2.51-1.76,4.07-1.76,4.07-10.54,9.06-25.4,21.92-30.1,25.95a39.7,39.7,0,0,1,4.55,10.55c6.93-4,13.73-8.21,20.44-12.56,3.62-2.35,7.36-4.74,11.07-7.23h0a27.36,27.36,0,0,0,8.4-5.89,46.79,46.79,0,0,0,7.81-10.85c8.09-15.06,10.3-33.74,10.3-33.74Z" style="fill: url(#b44fa565-9974-469b-a8a5-dd0182efc9a1)"/>
                  <path d="M512.27,397.77s-4,3.92-5.4,7.25,1.78.25,1.78.25-12.16,11.52-9.52,15.24,17.7-12.19,17.7-12.19l-.18-9.37Z" style="fill: url(#ad94d04c-492d-4313-aae0-498ed9f914b0)"/>
                </g>
                <g>
                  <path d="M346.51,472.36s-7.93-.05-10.77,0c-1.24,0-6.64,13.4,2,15.75l8.4-2.56,1.67-10.63Z" style="fill: url(#b77b43b6-d7f9-42cb-a1b0-fb9afd2d3ef7)"/>
                  <path d="M320,447c.07,30.64,3.35,44.67,3.35,44.67a26.45,26.45,0,0,0,14.4-3.55c-.28.18-1.62-1.42-1.78-1.63a8.77,8.77,0,0,1-1.22-2.4c-1.06-3.13-.16-5.9.52-9,1.4-6.41,2.58-13.63-.22-19.84a13.91,13.91,0,0,0-9.15-7.65C325.59,447.51,320,446.58,320,447Z" style="fill: url(#a2db1f46-e9af-43e9-b036-b4e729ad1155)"/>
                </g>
                <path d="M608.52,238.64l-.4-.14c-24.29-8.58-44.8,5.63-45.63,31-.18,5.5-1.37,37.43,6.94,38,7.18.51,7.82-9.1,47.14-1.44,17.74,3.45,24.92-15,17.62-29.38-1.8-3.56-4.15-6.83-5.89-10.42C622.84,255,621.72,243.52,608.52,238.64Z" style="fill: url(#a0ca4b49-f95c-4329-b3ac-1402902ee285)"/>
                <path d="M345.83,485.86s68,8.18,104-2.69a13.83,13.83,0,0,1,6.13-.45c30.13,4.58,61.33,10.42,91.87,10.56a64.43,64.43,0,0,0,38.87-13c6.16-4.55,12-9.9,15.39-16.87,2.69-5.59,3.34-11.9,3.11-18-.07-1.75-.59-16.45-2-16.93l-17.43-5.85-5.33,4.11-28.37,21.85c-5.48-.15-11.67-.2-18.62-.09s-14.35.36-22.65.84c-3.07.17-6.24.37-9.53.6-8.44.6-17.58,1.4-27.45,2.45-81.31,8.66-88.36,16.8-129.36,19.92C344.46,472.33,340.62,477.32,345.83,485.86Z" style="fill: url(#b4bebfc3-8868-4a15-ada0-36c7f63361e5)"/>
                <path d="M585.34,283.71s-.42,25.46-8.73,27.62c0,0,10.67,14.67,25.71-3,0,0-.86-13.52,3-23.56Z" style="fill: url(#b4cbd384-59c9-4d09-a7b6-0e0c209b4bc9)"/>
                <path d="M627.64,324.93S611.55,309,602.52,308.06c0,0-5.85,7-17.57,6-6.87-.85-3.61-7.85-3.25-8.48-1.26,2-4.37,3.66-6.4,4.62a30.71,30.71,0,0,1-3.32,1.34l-.05,0c-.18.06-.36.13-.54.18h0c-6.09,2.11-9,4.28-11.86,10a67.75,67.75,0,0,0-3.36,8h0v0q-1,2.87-1.81,5.81a36.38,36.38,0,0,1-3,5.17,18.44,18.44,0,0,0-3.41,13.39l2.36,8.6,0,0c-.3,4.64-.48,9.3-.65,13.94,0,.17,0,.34,0,.51,0,2.26-.08,4.52-.13,6.77v0c-.06,2.57-.16,5.14-.28,7.67-.05.83-.09,1.65-.14,2.46-.62,10.76-1.8,20.47-3.67,26.17.42.3,17.72,12.8,47.48,9.84a98.56,98.56,0,0,0,10.33-1.59h0a.49.49,0,0,1,0-.1l0,0c0-.11.12-.29.21-.52l.07-.17a1.38,1.38,0,0,0,.06-.16c.06-.12.11-.27.18-.42s.15-.38.23-.6l.15-.37.6-1.53c.06-.14.11-.28.17-.41s.14-.36.21-.54l0-.11c.05-.12.1-.23.14-.35a1.84,1.84,0,0,0,.09-.25l.09-.2v0c.15-.37.3-.77.45-1.18l.63-1.63c.83-2.19,1.77-4.72,2.79-7.53.91-2.49,1.87-5.21,2.86-8.09q.94-2.7,1.9-5.6c.17-.53.35-1.07.53-1.61s.31-.94.46-1.41c0-.16.1-.32.16-.48.22-.71.45-1.42.68-2.14.12-.36.23-.73.34-1.09.18-.54.35-1.09.52-1.64l.3-1c.49-1.58,1-3.19,1.45-4.81.15-.5.3-1,.44-1.48.34-1.14.66-2.29,1-3.44.88-3.12,1.73-6.3,2.53-9.47l0-.17q.73-2.94,1.4-5.85l.24-1.09C627.44,348.54,629.3,335.05,627.64,324.93Z" style="fill: url(#ecac3e2a-0996-42d4-be7b-6ca6e0a44c3a)"/>
                <path d="M559.36,362.33l1.1.42A6.74,6.74,0,0,1,559.36,362.33Z" style="opacity: 0.30000000000000004;mix-blend-mode: multiply;fill: url(#bc6afb44-8dc4-4a1d-bc0e-3d3c71121e62)"/>
                <path d="M540.7,342.73l-.59.46A2,2,0,0,1,540.7,342.73Z" style="fill: url(#b7e2b0b2-9f6d-424b-a369-d0c95ddc25c3)"/>
                <path d="M602.64,306.74s3.19.07,3.88,1.71S598.2,323.4,594.79,325s-9.13-10.85-9.13-10.85S599.67,313.54,602.64,306.74Z" style="fill: #ffe1b6"/>
                <path d="M581.54,305.61s-2,2-2.45,1.93-4,9.37-1.72,14.16c2.65,5.59,8.29-7.56,8.29-7.56S579.26,313.49,581.54,305.61Z" style="fill: #ffe1b6"/>
                <path d="M569.08,267.84s3.79,9.32,2.8,16.87,3.06,16.54,12.49,21.26c0,0,19.76-4.36,23.28-16,0,0,.36-5,.79-8.22s4.91-5.2,2.41-10.12-4.55-1.39-4.55-1.39-.89-3.9-1.91-7.15S569.08,267.84,569.08,267.84Z" style="fill: url(#baba7ff6-cf9f-4edc-b100-94b63cbd8bc1)"/>
                <path d="M569.08,267.84s11.23,19.19,38.26,2.52-20.73-12.8-20.73-12.8Z" style="fill: url(#a9fade80-1cbd-4a17-988c-7b99e5e04f81)"/>
                <g>
                  <polygon points="547.45 446.88 581.13 434.7 527.4 419.01 547.45 446.88" style="fill: url(#a705c064-5c9b-4add-a51b-30b5e350ce7b)"/>
                  <polygon points="547.45 446.88 477.68 434.89 462.77 376.98 532.53 388.96 547.45 446.88" style="fill: url(#a97ebaee-3c20-4016-8235-93416265f055)"/>
                </g>
                <path d="M615.36,363.54c-2.71-5.6-3.24-19.84-4.89-16.54-1.42,2.85,1.87,25.7-11.49,28.06a12.23,12.23,0,0,1-1.65.19c-15.26.74-38.83-6.34-38.83-6.34,9.66,8.46,25,8.94,37.79,10.25-1.44,2.09-2.95,4.16-4.5,6.18-4.44,5.77-9.16,11.11-13.12,15.35-5.37,5.75-9.36,9.48-9.36,9.48l4.56,10.55s14.31-7.88,24-11.62c5-2,8.8-2.79,8.58-.78a11.79,11.79,0,0,1-2.62,5.14c-4.21,5.55-12,11.79-12.37,12.05h0c-9.25,2.34-23.64,1.92-46-5.25.41.3,17.71,12.79,47.47,9.84.59-.06,1.19-.12,1.8-.2,2.74-.32,5.59-.78,8.53-1.39h0l0-.1,0,0c0-.11.12-.29.21-.52a1,1,0,0,1,.06-.16l.07-.16c0-.14.11-.28.17-.44s.16-.37.24-.6l.15-.36.6-1.53a3,3,0,0,0,.16-.42c.07-.17.14-.35.22-.53l0-.11c.05-.11.09-.23.14-.35l.09-.24a.69.69,0,0,0,.05-.13s0-.05,0-.08a.06.06,0,0,1,0,0l.45-1.17c.2-.53.42-1.07.63-1.65.08-.21.17-.42.25-.64.76-2,1.62-4.34,2.54-6.88s1.87-5.2,2.87-8.09h0c.61-1.8,1.25-3.67,1.89-5.59.17-.53.35-1.07.53-1.61s.31-.94.46-1.41c0-.16.11-.32.15-.48L616,393c.12-.36.23-.72.34-1.08.18-.56.35-1.1.52-1.65l.3-1c.49-1.58,1-3.19,1.45-4.81.15-.5.29-1,.45-1.49.33-1.13.65-2.28,1-3.42.88-3.14,1.73-6.3,2.53-9.48l0-.18h0c.08-1.69.08-2.64.08-2.64S618.07,369.14,615.36,363.54Z" style="opacity: 0.5;mix-blend-mode: multiply;fill: url(#e36b539a-f0b9-4ed9-9b3e-03400944f12f)"/>
                <path d="M569.31,410.17s-4,3.92-5.4,7.25,1.78.25,1.78.25-12.16,11.52-9.51,15.24,17.69-12.19,17.69-12.19l-.17-9.36Z" style="fill: url(#a254ac7b-ec70-4f0c-adf7-f9f1e25ec4d4)"/>
                <path d="M627.64,324.93c-4.83-4.45-14.79,11.48-13.73,18.65-.23,6.53-8.93,27.63-12.74,36.57-1.07,2.52-1.75,4.07-1.75,4.07-10.55,9.07-25.4,21.92-30.11,25.95a40.09,40.09,0,0,1,4.56,10.55c6.93-4,13.73-8.21,20.43-12.55,3.63-2.35,7.37-4.74,11.08-7.23l0,0A27.2,27.2,0,0,0,613.8,395a46.44,46.44,0,0,0,7.81-10.84c8.1-15.06,10.31-33.75,10.31-33.75S632.48,329.39,627.64,324.93Z" style="fill: url(#a8a5a2df-64d2-4001-8297-47ff91e8607d)"/>
              </g>
            </g>
          </g>
          <g style="opacity: 0.9">
            <g>
              <rect x="617.49" y="109.55" width="164.12" height="92.58" rx="13.28" style="fill: #ff6969"/>
              <path d="M629.59,174.68l-28.34,37.37a3.49,3.49,0,0,0,4.39,5.19l43.07-21.66Z" style="fill: #ff6969"/>
            </g>
            <g style="opacity: 0.8">
              <path d="M670.12,154a4.71,4.71,0,0,1-2.68,1.88,4.71,4.71,0,0,1,2.68,1.88,7.43,7.43,0,0,1,.84,4V170a3.9,3.9,0,0,0,1,2.86,3.86,3.86,0,0,0,2.87,1h1v6.37h-3q-4.91,0-7.42-2.4c-1.68-1.6-2.53-3.91-2.53-6.94v-9.44a2.53,2.53,0,0,0-.6-1.82,2.25,2.25,0,0,0-1.71-.63H658.7v-6.36h1.74a2.25,2.25,0,0,0,1.71-.63,2.51,2.51,0,0,0,.6-1.82v-9.44c0-3,.85-5.34,2.53-6.94s4.15-2.39,7.42-2.39h3v6.36h-1a3.86,3.86,0,0,0-2.87,1,3.93,3.93,0,0,0-1,2.87V150A7.41,7.41,0,0,1,670.12,154Z" style="fill: #fff"/>
              <path d="M695.79,131.44h7.52v48.81h-7.52Z" style="fill: #fff"/>
              <path d="M740.4,152.66V159h-1.74a2.25,2.25,0,0,0-1.71.63,2.53,2.53,0,0,0-.6,1.82v9.44c0,3-.85,5.34-2.53,6.94s-4.15,2.4-7.42,2.4h-3v-6.37h.95a3.86,3.86,0,0,0,2.87-1,3.9,3.9,0,0,0,1-2.86v-8.35a7.43,7.43,0,0,1,.84-4,4.71,4.71,0,0,1,2.68-1.88A4.71,4.71,0,0,1,729,154a7.41,7.41,0,0,1-.84-4v-8.34a3.93,3.93,0,0,0-1-2.87,3.86,3.86,0,0,0-2.87-1h-.95v-6.36h3q4.9,0,7.42,2.39c1.68,1.6,2.53,3.92,2.53,6.94v9.44A2.51,2.51,0,0,0,737,152a2.25,2.25,0,0,0,1.71.63Z" style="fill: #fff"/>
            </g>
          </g>
        </g>
      </g>
    </g>
  </g>
</svg>
