<svg xmlns="http://www.w3.org/2000/svg" xmlns:xlink="http://www.w3.org/1999/xlink" viewBox="0 0 691.07 499.27">
  <defs>
    <linearGradient id="a4da514e-0467-45e7-aa19-e1ce0d280ce3" x1="298.68" y1="403.1" x2="488.58" y2="-182.22" gradientUnits="userSpaceOnUse">
      <stop offset="0" stop-color="#003a45"/>
      <stop offset="1" stop-color="#006d8b"/>
    </linearGradient>
    <linearGradient id="aefbb390-5fd8-49a0-9b98-9dd3cdf0408c" x1="592.77" y1="163.09" x2="536.15" y2="199.66" gradientUnits="userSpaceOnUse">
      <stop offset="0" stop-color="#e75b00"/>
      <stop offset="1" stop-color="#ffa345"/>
    </linearGradient>
    <linearGradient id="aea20960-6611-4133-9fb4-c2bb3b7f6bb2" x1="508.53" y1="562.84" x2="508.79" y2="569.39" gradientTransform="translate(77.67 -124.36) rotate(2.84)" gradientUnits="userSpaceOnUse">
      <stop offset="0" stop-color="#f0877e"/>
      <stop offset="1" stop-color="#fabeb2"/>
    </linearGradient>
    <linearGradient id="fd409e68-808d-4640-a5f8-eb994887fc5f" x1="559.81" y1="440.91" x2="556.57" y2="495.98" gradientUnits="userSpaceOnUse">
      <stop offset="0" stop-color="#00c3e7"/>
      <stop offset="1" stop-color="#0063b9"/>
    </linearGradient>
    <linearGradient id="aa024331-126f-4f4e-aa34-0c8f0ecdd7d3" x1="4547.94" y1="544.45" x2="4545.67" y2="306.66" gradientTransform="matrix(-1, -0.05, -0.05, 1, 5142.59, 127.06)" xlink:href="#fd409e68-808d-4640-a5f8-eb994887fc5f"/>
    <linearGradient id="b82256ca-d0d3-45c3-9afa-56aff81f7929" x1="613.8" y1="475.14" x2="614.72" y2="483.3" gradientTransform="matrix(1, 0, 0, 1, 0, 0)" xlink:href="#aea20960-6611-4133-9fb4-c2bb3b7f6bb2"/>
    <linearGradient id="a0df4b29-b608-4606-94ac-2ad66d588b16" x1="615.07" y1="455.87" x2="612.73" y2="209.41" xlink:href="#fd409e68-808d-4640-a5f8-eb994887fc5f"/>
    <linearGradient id="ae4cfe02-dde6-4511-9b19-a5c858093a95" x1="616.47" y1="444.2" x2="613.23" y2="499.29" xlink:href="#fd409e68-808d-4640-a5f8-eb994887fc5f"/>
    <linearGradient id="b8fd1d76-a600-4784-990b-8c4b06b8a524" x1="589.89" y1="128.94" x2="630.8" y2="62.08" gradientUnits="userSpaceOnUse">
      <stop offset="0" stop-color="#5c1a00"/>
      <stop offset="1" stop-color="#b94300"/>
    </linearGradient>
    <linearGradient id="b38052a8-5d9a-4dcc-b460-4b58f056c1ed" x1="597.23" y1="129.4" x2="597.23" y2="145.24" gradientTransform="matrix(1, 0, 0, 1, 0, 0)" xlink:href="#aea20960-6611-4133-9fb4-c2bb3b7f6bb2"/>
    <linearGradient id="ef346b9e-be66-4b77-baf5-8e54ff78529d" x1="596.94" y1="83.44" x2="596.26" y2="122.33" gradientTransform="matrix(1, 0, 0, 1, 0, 0)" xlink:href="#aea20960-6611-4133-9fb4-c2bb3b7f6bb2"/>
    <linearGradient id="a638d6ac-68a9-4fae-b078-f368e276496d" x1="619.08" y1="262.45" x2="596.6" y2="163.33" xlink:href="#aefbb390-5fd8-49a0-9b98-9dd3cdf0408c"/>
    <linearGradient id="afb9bd2a-70b2-4c59-b0e2-5771697a81ac" x1="572.63" y1="142.29" x2="642.79" y2="27.62" xlink:href="#b8fd1d76-a600-4784-990b-8c4b06b8a524"/>
    <linearGradient id="efddd666-6620-4329-ab3c-34c3ced1d9ad" x1="617.07" y1="276.46" x2="591.06" y2="161.78" xlink:href="#aefbb390-5fd8-49a0-9b98-9dd3cdf0408c"/>
    <linearGradient id="a795b532-f7a1-4d3b-8bbb-3baa8d96ba1c" x1="608.09" y1="280.12" x2="593.56" y2="156.87" xlink:href="#aefbb390-5fd8-49a0-9b98-9dd3cdf0408c"/>
    <linearGradient id="e5c48446-b8fc-4e20-934a-eb373aea14aa" x1="604.32" y1="192.13" x2="601.31" y2="248.02" gradientUnits="userSpaceOnUse">
      <stop offset="0" stop-color="#00b0d0"/>
      <stop offset="1" stop-color="#0098d0"/>
    </linearGradient>
    <linearGradient id="edf24051-b3fc-4a2e-afe5-6a836edcf918" x1="604.21" y1="194.02" x2="601.31" y2="247.92" xlink:href="#e5c48446-b8fc-4e20-934a-eb373aea14aa"/>
    <linearGradient id="ba67b3c0-6244-47a3-900b-39d0a677d496" x1="605.46" y1="223.28" x2="588.92" y2="223.58" gradientTransform="matrix(1, 0, 0, 1, 0, 0)" xlink:href="#aea20960-6611-4133-9fb4-c2bb3b7f6bb2"/>
    <linearGradient id="b63d5b36-dc4a-4a3a-b73b-88f640ddb144" x1="634.66" y1="258.79" x2="612.21" y2="159.82" xlink:href="#aefbb390-5fd8-49a0-9b98-9dd3cdf0408c"/>
    <linearGradient id="a6b14086-fd0b-4bad-8f83-07e4437c36e6" x1="289.56" y1="1361.03" x2="267.49" y2="1361.43" gradientTransform="translate(1117.07 -1050.36) rotate(37.95)" xlink:href="#aea20960-6611-4133-9fb4-c2bb3b7f6bb2"/>
    <linearGradient id="a21dd233-af62-496d-b6f0-693bc866e774" x1="551.04" y1="218.84" x2="551.26" y2="218.84" xlink:href="#aefbb390-5fd8-49a0-9b98-9dd3cdf0408c"/>
    <linearGradient id="a19b4840-3d33-4224-90c5-7a30888f6ae4" x1="558.51" y1="198.98" x2="557.51" y2="198.98" xlink:href="#aefbb390-5fd8-49a0-9b98-9dd3cdf0408c"/>
    <linearGradient id="be978308-6d88-4ea7-b481-9c6c16efd428" x1="562.19" y1="219" x2="562.18" y2="219" xlink:href="#aefbb390-5fd8-49a0-9b98-9dd3cdf0408c"/>
    <linearGradient id="bc89b4c6-b1d1-4d62-820b-9f30bf476b4d" x1="556.39" y1="190.39" x2="554.49" y2="228.64" xlink:href="#aefbb390-5fd8-49a0-9b98-9dd3cdf0408c"/>
  </defs>
  <g style="isolation: isolate">
    <g id="e04129f1-a4ad-4d9e-ab4d-1a2c97dac542" data-name="Calque 2">
      <g id="b9c4e58a-aecd-4105-aea7-65d5b1d90d9f" data-name="69">
        <g id="e4c58f54-ef58-445b-8b40-11a113e6b7f0" data-name="1">
          <g>
            <path d="M691.07,18A18.08,18.08,0,0,0,672.91,0H18.16A18.08,18.08,0,0,0,0,18V52.44H691.07Z" style="fill: #3e8bba"/>
            <path d="M0,52.44V462.1a18.08,18.08,0,0,0,18.16,18H672.91a18.08,18.08,0,0,0,18.16-18V52.44Z" style="fill: url(#a4da514e-0467-45e7-aa19-e1ce0d280ce3)"/>
            <g>
              <ellipse cx="609.83" cy="26.22" rx="10.47" ry="10.38" style="fill: #ffd07d"/>
              <ellipse cx="645.09" cy="26.22" rx="10.47" ry="10.38" style="fill: #ff7b7b"/>
              <ellipse cx="574.57" cy="26.22" rx="10.47" ry="10.38" style="fill: #68d359"/>
            </g>
          </g>
          <g>
            <path d="M568.66,183.42a18.75,18.75,0,0,1-1.1,2.17,76.92,76.92,0,0,1-3.1,7.9c-.48,1.08-1,2.16-1.48,3.23-1.13,2.4-2.31,4.77-3.53,7.13-.73,1.42-1.48,2.83-2.23,4.25-1.58,3-3.36,7.43-6,10.6L551,219l0,0-.16.19a14.6,14.6,0,0,1-1.18,1.18,7.63,7.63,0,0,1-7.16,1.87c-11.19-2.66-22.08-8.54-32.23-13.79q-4.71-2.44-9.38-5c-1.39-.75-2.77-1.53-4.14-2.31l-.19-.1.07-.06a8.54,8.54,0,0,0,1.37-1.32,20.91,20.91,0,0,0,3.61-7.25l.29.11,3.05,1.08c11,3.92,30.44,10.79,35.21,12.55.2-3.5,1.5-8,3.4-13,3.46-9,7.45-18,11.27-26.88a23.12,23.12,0,0,1,4.36-6.3c.58-.65,1.17-1.29,1.74-2,.35-.34.72-.68,1.11-1a46,46,0,0,1,6-4.26l.66,4A32.77,32.77,0,0,1,568.66,183.42Z" style="fill: url(#aefbb390-5fd8-49a0-9b98-9dd3cdf0408c)"/>
            <g>
              <g>
                <path d="M563.79,469.15a21.63,21.63,0,0,1,1.19-6.34c1.09-2.61-13.49-3.12-14.2-2.6s0-.33,0-.33a50,50,0,0,1-.41,9.6l7.34,6.9s4.45.25,4.46.2,1.45-5.37,1.45-5.37Z" style="fill: url(#aea20960-6611-4133-9fb4-c2bb3b7f6bb2)"/>
                <path d="M566,479.89a70.49,70.49,0,0,0-2.2-10.74c0,.15-.06.3-.1.45a3.58,3.58,0,0,1-.14.84c-.8,2.86-4.06,3.13-6.67,2.31a13.21,13.21,0,0,1-4.45-2.27,4,4,0,0,1-1.55-1.9,16.83,16.83,0,0,1-.09-2.93,0,0,0,0,1,0,0l-.11.08a3.15,3.15,0,0,0-1.23,2.89,59.55,59.55,0,0,1-.05,11.64c-.5,3.1,1.07,7.27,3.41,9.64s5.54,3.94,8.81,2.27C564.71,490.6,566.72,485.53,566,479.89Z" style="fill: url(#fd409e68-808d-4640-a5f8-eb994887fc5f)"/>
                <path d="M565.45,369.72c2.51-7.1.64-3,1.31-6.2,4.32-20.47-4.17-50.41-4.58-68.64s3.28-20.6,5.73-37.23c8.06-1,27.58-18.64,32.4-.77s5.36,37.59,2.62,59.63c-2.77,22.23-14.85,46.88-16.59,71.61-1.69,24.1-12.81,51.08-20.3,74.9a3.7,3.7,0,0,1-2.63,2.42c-5.11,1.33-9.13,1.32-13-3.9-2.07-2.78,2.1-21.32,2.61-23.12l0-.08c.39-1.47,0-.06-.14.48,2.93-10.91,3-22.4,3.61-33.81.7-12.46,4.09-23.71,8.94-35.29Z" style="fill: url(#aa024331-126f-4f4e-aa34-0c8f0ecdd7d3)"/>
              </g>
              <g>
                <path d="M621.92,475.28s-1.38,4.81,0,8.39c0,0-8.5,2.86-8.31,2.86s-7-3.16-7-3.16a24.86,24.86,0,0,0,1-10.83C606.83,466.48,621.92,475.28,621.92,475.28Z" style="fill: url(#b82256ca-d0d3-45c3-9afa-56aff81f7929)"/>
                <path d="M626.29,372.07s5.59,20.38,3.14,38.3c-1.51,11.06-2.62,23.58-3.25,31.54-.18,2.76-.38,5.49-.59,8.13-1,13.14-2.35,23.94-3.68,25.24-2.43,2.41-7.06,3.92-12.66,1.23a4.75,4.75,0,0,1-2.76-4c-.69-12.19-3.67-66.14-2.67-82.69.38-6.31-.37-13.51-1.67-21.36-1.33-8.18-3.27-17.07-5.13-26.41-1.64-8.21-3.21-16.76-4.28-25.46-3.41-27.87-2.44-43.44,1-58.86S626.22,259,626.22,259,636.4,283,636.4,296.46s-11.75,57.85-10.62,70.16C626,368.51,626.12,370.31,626.29,372.07Z" style="fill: url(#a0df4b29-b608-4606-94ac-2ad66d588b16)"/>
                <path d="M623.12,484.59a3.19,3.19,0,0,0-2-1.8c-1.92-.62-5.44-1.64-7.5-1.52a30.21,30.21,0,0,0-6.06,1.24,3.24,3.24,0,0,0-2,1.63,39.74,39.74,0,0,0-2.65,7c-1.19,4.19,2.22,6.15,5.66,7.44,5.41,2,16-.29,16-5.65A21.9,21.9,0,0,0,623.12,484.59Z" style="fill: url(#ae4cfe02-dde6-4511-9b19-a5c858093a95)"/>
              </g>
            </g>
            <path d="M634.72,111.08c-1.59-3.35-3.66-6.43-5.18-9.81-3.79-8.4-4.22-16.76-11.28-23.34a32.68,32.68,0,0,0-22.92-9,30.24,30.24,0,0,0-20.47,9.17c-6.59,6.78-6.26,15-10,23.13-1.52,3.38-3.59,6.46-5.18,9.81-6.39,13.53-.07,30.75,15.51,27.59l.13,0c5.7-1.19,10.49-1.95,14.52-2.38,2.78-.3,5.2-.44,7.33-.46s4.55.16,7.32.46c4,.43,8.82,1.19,14.53,2.38l.13,0C634.79,141.83,641.11,124.61,634.72,111.08Z" style="fill: url(#b8fd1d76-a600-4784-990b-8c4b06b8a524)"/>
            <path d="M605.75,129.34l-8.67,4.84-8.81-4.59a21.31,21.31,0,0,1-3.57,15l12.53,6.62,12.53-7A21.36,21.36,0,0,1,605.75,129.34Z" style="fill: url(#b38052a8-5d9a-4dcc-b460-4b58f056c1ed)"/>
            <path d="M618.36,99.84a21.08,21.08,0,0,0-2.56-10.07,22.1,22.1,0,0,0-19.54-11.31,21.67,21.67,0,0,0-19.45,12.91c-3.68,8.22-1.23,16.19,1.11,24.37.89,3.11,1.83,6.22,3,9.26.69,1.83,1.42,4.39,3,5.75,2.39,2.1,7.89,4.69,11,6.08a5.39,5.39,0,0,0,4.53-.07c3.09-1.47,8.52-4.23,10.83-6.39,3.07-2.87,3.95-9.42,5-13.24C616.68,111.47,618.45,105.6,618.36,99.84Z" style="fill: url(#ef346b9e-be66-4b77-baf5-8e54ff78529d)"/>
            <path d="M642.82,195.57l-4.1.05-8.1.12-32.1.47H598l-35,.51-5,.07c-.52-4.68-.76-9-.83-13a114.48,114.48,0,0,1,1.45-21c1.3-2.27,2.48-4.26,3.43-5.85a46,46,0,0,1,6-4.26c2.49-1.52,4.54-2.54,4.92-2.73l.07,0a46.15,46.15,0,0,0,4.37-2,56.67,56.67,0,0,0,7.53-5.36,1,1,0,0,1,1.5,0c2.76,7.41,11.38,6.3,11.39,6.3,2.11-.19,7.79.71,10-5.85,0,0,.12-1.5.86-.7s6.29,3.95,8.39,5a61.84,61.84,0,0,0,6.34,2.59c.9.32,1.87.65,2.86,1a33.18,33.18,0,0,1,18.07,21.83,19.21,19.21,0,0,1,.48,2.38,78,78,0,0,1,2.46,8.12c.39,2.12.73,4.08,1,5.79A5.62,5.62,0,0,1,642.82,195.57Z" style="fill: url(#a638d6ac-68a9-4fae-b078-f368e276496d)"/>
            <path d="M616.68,82.16s-10-9.59-21.6-6.54-26.44,16.27-21.2,27.54h0c-1.5,3,.92,4.8,11.46,3.29,12.76-1.83,20.32-6.06,24.8-10.48.88,2.93,3.51,9.42,10,12.45C628.77,112.4,616.68,82.16,616.68,82.16Z" style="fill: url(#afb9bd2a-70b2-4c59-b0e2-5771697a81ac)"/>
            <path d="M608.09,141.54s3.35,1.22,3.35,3.71c0,1.51-3.71,12.11-6.61,13.47s-10-9.82-10-9.82S605.56,147.33,608.09,141.54Z" style="fill: #ffe1b6"/>
            <path d="M586.25,141.54s-3.34,1.22-3.34,3.71c0,1.51,3.71,12.11,6.61,13.47s10-9.82,10-9.82S588.78,147.33,586.25,141.54Z" style="fill: #ffe1b6"/>
            <path d="M641,183.89s-.92,4.66-2.25,11.73c-.37,2-.78,4.2-1.21,6.54-3.35,18.26-11.06,45.57-11.28,56.86-37.62,11.65-58.32-1.37-58.32-1.37-.16-8-2.83-23.75-5.72-38.63a.43.43,0,0,0,0-.05c-1.22-6.29-2.48-12.44-3.61-17.77v0l-.92-4.36H558c-.52-4.68-.76-9-.83-13l40.7-1.14,33.8.95.7,0Z" style="fill: url(#efddd666-6620-4329-ab3c-34c3ced1d9ad)"/>
            <path d="M636.4,201.92c-3.3,18-10,46-10.17,57.1-37.06,11.48-58.32-1.37-58.32-1.37s41.12.82,50.22-5.45c7.68-5.28,2.57-18.14,6.81-27.71,3.54-8,4.85-34.64,5.72-40.83.17-1.24.32-1.66.48-.93.05.28.12.6.21,1,1.23,5.23,5,18.23,5,18.23Z" style="opacity: 0.5;mix-blend-mode: multiply;fill: url(#a795b532-f7a1-4d3b-8bbb-3baa8d96ba1c)"/>
            <g>
              <rect x="582.38" y="191.57" width="40.99" height="54.83" rx="2.63" style="fill: url(#e5c48446-b8fc-4e20-934a-eb373aea14aa)"/>
              <path d="M623.33,242.59a4.18,4.18,0,0,1-3.94,3.81h-33a4.27,4.27,0,0,1-4-4.51v-45.8a4.39,4.39,0,0,1,3.36-4.46,5.36,5.36,0,0,0,0,.7v45.8a4.26,4.26,0,0,0,4,4.51h33A3.28,3.28,0,0,0,623.33,242.59Z" style="opacity: 0.30000000000000004;mix-blend-mode: multiply;fill: url(#edf24051-b3fc-4a2e-afe5-6a836edcf918)"/>
            </g>
            <g>
              <path d="M598.73,230.49c-1.26.19-2.53.36-3.79.52a2.39,2.39,0,0,1-1.59.43,29.05,29.05,0,0,0-3.18,1c-1.14.51-5.09.3-7.79-.14a1.68,1.68,0,0,1-.58-1,1.28,1.28,0,0,1,.5-.86,15.51,15.51,0,0,0,2.58,0c-.76-.08-1.62-.22-2.5-.39-.39-.08-.81-1.08-.81-1.44s.76-.68.81-.7h0l1.51.28,1.29-.24a15.42,15.42,0,0,1-3-.66h0s-.62-.64-.62-1.08.81-1.06.81-1.06l.44.14,1.45-.07a14.36,14.36,0,0,1-2.38-1.47l0,0c-.2-.18-.78-.74-.6-1.28s1.13-1,1.13-1c.33.27.54.42.54.42l4.1,1.26h0c.22,0,2.33.2,1.53-2.2-.85-2.55-2.13-4-1.81-5.27s.54-1.44,1.06-1.13,0,2.26,1.81,3.1,2.58,3.05,4.62,3.44a1.14,1.14,0,0,1,.59.33h0l2.51-.82S599.86,226.3,598.73,230.49Z" style="fill: url(#ba67b3c0-6244-47a3-900b-39d0a677d496)"/>
              <path d="M652.31,213.48a7.52,7.52,0,0,1-4.48,5.84c-10.48,4.72-22.71,6.73-34,8.78-3.49.63-7,1.23-10.5,1.77-1.56.25-3.13.49-4.71.71l-.2,0a8.51,8.51,0,0,0,.28-2,21.05,21.05,0,0,0-1.65-7.92l3.37-1.1c11.13-3.64,30.7-10,35.56-11.57-2-2.88-3.82-7.26-5.39-12.32-5.6-18-8.43-44.6-8.43-44.6l.9.79.34-2c.9.32,1.87.65,2.86,1a33.18,33.18,0,0,1,18.07,21.83,19.21,19.21,0,0,1,.48,2.38,77.55,77.55,0,0,1,2.46,8.13c1.34,5.26,2.39,10.59,3.35,15.93C651.35,203.14,653.17,208.94,652.31,213.48Z" style="fill: url(#b63d5b36-dc4a-4a3a-b73b-88f640ddb144)"/>
            </g>
            <path d="M501.92,192.48l-2.49-.88h0a1.22,1.22,0,0,0-.27-.62c-1.36-1.55-.61-3.76-1.51-5.53s.71-3,.5-3.55-.46-.59-1.53.25-.94,2.73-1.85,5.25-2.41,1-2.57.8h0l-2.46-3.49s-.62-2.5-1.11-4.76-2.14-3.66-2-1c.1,2.44,1.14,7.42,2.13,9.2l-1.19-.83s-1.45-2.14-2.7-4.1-3.26-2.7-2.23-.22c.94,2.23,3.59,6.48,5.14,7.86l-1.18-.6s-1.72-1.92-3.22-3.69-3.61-2.25-2.25.07a34.79,34.79,0,0,0,4.86,6,13.53,13.53,0,0,1-2-1.54c-1.61-1.45-3.6-1.63-2.06.34s5.57,5.65,7,6a26.47,26.47,0,0,1,3.16,1.11,2.32,2.32,0,0,0,1.51.63c1.1.65,2.21,1.28,3.31,1.91C500.37,198.48,501.92,192.48,501.92,192.48Z" style="fill: url(#a6b14086-fd0b-4bad-8f83-07e4437c36e6)"/>
            <path d="M551,219l.22-.27Z" style="fill: url(#a21dd233-af62-496d-b6f0-693bc866e774)"/>
            <path d="M558,196.79c.16,1.43.34,2.88.55,4.37l-.92-4.36Z" style="fill: url(#a19b4840-3d33-4224-90c5-7a30888f6ae4)"/>
            <path d="M562.19,219h0a.43.43,0,0,0,0-.05Z" style="fill: url(#be978308-6d88-4ea7-b481-9c6c16efd428)"/>
            <path d="M557.22,208.1c-1.58,3-3.36,7.43-6,10.6,4.34-5.7,6-31.1,6-31.1l2.18,16.25C558.72,205.27,558,206.68,557.22,208.1Z" style="fill: url(#bc89b4c6-b1d1-4d62-820b-9f30bf476b4d)"/>
            <path d="M602.16,368.48h0c-1.33-8.18-3.27-17.07-5.13-26.41l.05-.19s4.67-29.43,7.5-31.87S600.46,353.33,602.16,368.48Z" style="fill: #ffcaf4;opacity: 0.5;mix-blend-mode: multiply"/>
          </g>
          <g>
            <rect x="126.57" y="253.33" width="288.84" height="162.94" rx="23.38" style="fill: #ff6969"/>
            <g style="opacity: 0.8">
              <path d="M219.19,331.5a8.27,8.27,0,0,1-4.72,3.3,8.32,8.32,0,0,1,4.72,3.3q1.49,2.29,1.48,7v14.68a6.87,6.87,0,0,0,1.72,5.05,6.77,6.77,0,0,0,5,1.75h1.67v11.19h-5.37q-8.61,0-13.06-4.22t-4.44-12.21V344.71a4.47,4.47,0,0,0-1.06-3.21,4,4,0,0,0-3-1.1H199.1V329.2h3.06a4,4,0,0,0,3-1.1,4.47,4.47,0,0,0,1.06-3.21V308.28q0-8,4.44-12.21t13.06-4.22h5.37V303h-1.67a6.77,6.77,0,0,0-5,1.75,6.87,6.87,0,0,0-1.72,5v14.68Q220.67,329.2,219.19,331.5Z" style="fill: #fff"/>
              <path d="M264.37,291.85h13.24v85.9H264.37Z" style="fill: #fff"/>
              <path d="M342.88,329.2v11.2h-3.06a4,4,0,0,0-3,1.1,4.43,4.43,0,0,0-1.07,3.21v16.61q0,8-4.44,12.21t-13.06,4.22h-5.37V366.56h1.67a6.77,6.77,0,0,0,5-1.75,6.87,6.87,0,0,0,1.72-5.05V345.08q0-4.68,1.48-7a8.32,8.32,0,0,1,4.72-3.3,8.27,8.27,0,0,1-4.72-3.3q-1.49-2.29-1.48-7V309.84a6.87,6.87,0,0,0-1.72-5,6.77,6.77,0,0,0-5-1.75h-1.67V291.85h5.37q8.61,0,13.06,4.22t4.44,12.21v16.61a4.43,4.43,0,0,0,1.07,3.21,4,4,0,0,0,3,1.1Z" style="fill: #fff"/>
            </g>
          </g>
          <g>
            <path d="M65.34,100.27h174a16.8,16.8,0,0,1,16.8,16.8v83.51a16.81,16.81,0,0,1-16.81,16.81h-174a16.81,16.81,0,0,1-16.81-16.81V117.08A16.8,16.8,0,0,1,65.34,100.27Z" transform="translate(304.69 317.66) rotate(180)" style="fill: #c58af9"/>
            <g style="opacity: 0.8">
              <path d="M118.94,152.64l-20.58,7.48,20.58,7.41v7.66L89.53,164.1v-8l29.41-11.09Z" style="fill: #fff"/>
              <path d="M158.56,130h8.59l-20.4,57.71h-8.59Z" style="fill: #fff"/>
              <path d="M215.16,156.14v8l-29.41,11.09v-7.66l20.58-7.41-20.58-7.48v-7.59Z" style="fill: #fff"/>
            </g>
          </g>
          <g>
            <rect x="312.88" y="121.72" width="151.89" height="85.68" rx="12.29" transform="translate(777.65 329.12) rotate(180)" style="fill: #51caf4"/>
            <path d="M418.35,169.59V159.53l-8.33-2.9c-.17-.45-.36-.88-.55-1.31l3.82-7.89-3.59-3.56-3.59-3.56-8,3.79c-.43-.2-.87-.38-1.32-.55l-2.93-8.25H383.75l-2.93,8.25c-.45.17-.89.35-1.32.55l-8-3.79L368,143.87l-3.59,3.56,3.82,7.89c-.2.43-.38.86-.55,1.31l-8.33,2.9v10.06l8.33,2.91c.17.44.35.88.55,1.31l-3.82,7.89,3.59,3.56,3.59,3.55,8-3.78c.43.19.87.38,1.32.54l2.93,8.26H393.9l2.93-8.26c.45-.16.89-.35,1.32-.54l8,3.78,3.59-3.55,3.59-3.56-3.82-7.9c.19-.43.38-.86.55-1.3Zm-29.52,5.2a10.23,10.23,0,1,1,10.32-10.23A10.28,10.28,0,0,1,388.83,174.79Z" style="fill: #fff;opacity: 0.8"/>
          </g>
        </g>
      </g>
    </g>
  </g>
</svg>
