<svg width="368" height="298" viewBox="0 0 368 298" fill="none" xmlns="http://www.w3.org/2000/svg">
<path d="M184.012 5.32914V14.5531C109.764 14.5531 49.5727 74.7445 49.5652 149H40.3412C39.8998 148.998 39.4624 149.084 39.0545 149.253C38.6466 149.421 38.2764 149.67 37.9655 149.983C37.6546 150.296 37.4092 150.669 37.2436 151.078C37.078 151.487 36.9955 151.925 37.001 152.366C38.774 230.916 102.096 294.242 180.646 296C181.087 296.004 181.524 295.921 181.933 295.755C182.342 295.589 182.714 295.344 183.027 295.033C183.34 294.722 183.588 294.352 183.757 293.945C183.926 293.538 184.013 293.101 184.012 292.66V283.451C258.264 283.451 318.459 223.255 318.459 149.004H327.675C328.117 149.005 328.554 148.918 328.961 148.749C329.369 148.579 329.738 148.33 330.049 148.017C330.359 147.703 330.604 147.331 330.77 146.922C330.935 146.513 331.017 146.075 331.012 145.634C329.243 67.1252 265.928 3.77685 187.378 2.00013C186.938 1.99619 186.502 2.07932 186.094 2.24476C185.686 2.4102 185.315 2.65467 185.002 2.96409C184.69 3.27351 184.441 3.64177 184.271 4.04767C184.101 4.45357 184.013 4.88909 184.012 5.32914" fill="#e43f3f"/>
<path d="M184.012 5.32914V14.5531C109.764 14.5531 49.5727 74.7445 49.5652 149H40.3412C39.8998 148.998 39.4624 149.084 39.0545 149.253C38.6466 149.421 38.2764 149.67 37.9655 149.983C37.6546 150.296 37.4092 150.669 37.2436 151.078C37.078 151.487 36.9955 151.925 37.001 152.366C38.774 230.916 102.096 294.242 180.646 296C181.087 296.004 181.524 295.921 181.933 295.755C182.342 295.589 182.714 295.344 183.027 295.033C183.34 294.722 183.588 294.352 183.757 293.945C183.926 293.538 184.013 293.101 184.012 292.66V283.451C258.264 283.451 318.459 223.255 318.459 149.004H327.675C328.117 149.005 328.554 148.918 328.961 148.749C329.369 148.579 329.738 148.33 330.049 148.017C330.359 147.703 330.604 147.331 330.77 146.922C330.935 146.513 331.017 146.075 331.012 145.634C329.243 67.1252 265.928 3.77685 187.378 2.00013C186.938 1.99619 186.502 2.07932 186.094 2.24476C185.686 2.4102 185.315 2.65467 185.002 2.96409C184.69 3.27351 184.441 3.64177 184.271 4.04767C184.101 4.45357 184.013 4.88909 184.012 5.32914" stroke="white" stroke-width="2" stroke-linecap="round" stroke-linejoin="round"/>
<path d="M329.198 71.4716C328.719 70.6823 321.758 62.7002 321.758 62.7002L322.188 68.1089L166.458 71.2247C164.649 71.2613 162.914 71.9484 161.57 73.1602C160.226 74.3719 159.364 76.0272 159.142 77.8228L142.837 209.88L309.452 209.057C311.121 209.05 312.73 208.43 313.972 207.314C315.213 206.198 316.001 204.664 316.184 203.005L330.166 75.8292C330.332 74.3096 329.992 72.7776 329.198 71.4716Z" fill="#e43f3f" stroke="black" stroke-width="1.2" stroke-linecap="round" stroke-linejoin="round"/>
<path d="M320.834 85.9473L308.902 194.499C308.719 196.159 307.931 197.693 306.69 198.809C305.448 199.925 303.839 200.545 302.169 200.551L135.565 201.366L149.547 88.0681L320.834 85.9473Z" fill="black" stroke="black" stroke-width="1.2" stroke-linecap="round" stroke-linejoin="round"/>
<path d="M176.471 114.236L176.785 112.658L183.578 108.756L183.167 110.832L178.525 113.417V113.477L182.142 116.061L181.73 118.137L176.471 114.236Z" fill="#e43f3f"/>
<path d="M184.169 117.617L185.426 116.189C186.284 116.795 187.311 117.115 188.362 117.105C189.211 117.105 189.641 116.821 189.716 116.443C189.791 116.065 189.458 115.856 188.007 115.534C185.994 115.085 185.314 114.315 185.549 113.121C185.837 111.685 187.375 110.705 189.578 110.705C190.709 110.712 191.807 111.082 192.712 111.76L191.414 113.136C190.713 112.654 189.883 112.393 189.032 112.388C188.317 112.388 187.909 112.643 187.842 113.005C187.756 113.436 188.216 113.533 189.462 113.828C191.74 114.36 192.267 115.04 192.016 116.297C191.74 117.696 190.191 118.792 187.711 118.792C186.436 118.784 185.196 118.373 184.169 117.617V117.617Z" fill="#e43f3f"/>
<path d="M194.302 114.756C194.81 112.186 197.193 110.705 199.568 110.705C200.788 110.705 201.73 111.135 202.25 111.756L200.915 113.174C200.482 112.776 199.917 112.554 199.329 112.553C198.693 112.54 198.073 112.755 197.581 113.159C197.09 113.563 196.758 114.129 196.647 114.756C196.381 116.091 197.115 116.952 198.379 116.952C199.161 116.907 199.915 116.649 200.56 116.204L201.195 117.651C200.203 118.363 199.017 118.755 197.795 118.773C195.364 118.803 193.793 117.318 194.302 114.756Z" fill="#e43f3f"/>
<path d="M205.164 110.892H207.035L206.878 112.583H206.934C207.944 111.319 209.204 110.713 210.435 110.713C210.928 110.69 211.418 110.797 211.856 111.023L211.011 112.949C210.587 112.792 210.138 112.714 209.687 112.721C208.733 112.721 207.648 113.219 206.694 114.592L205.901 118.609H203.608L205.164 110.892Z" fill="#e43f3f"/>
<path d="M216.688 112.688H213.58L213.954 110.892H219.355L217.822 118.616H215.533L216.688 112.688ZM217.062 108.285C217.15 107.875 217.379 107.509 217.708 107.25C218.037 106.99 218.446 106.854 218.865 106.864C219.748 106.864 220.272 107.447 220.103 108.285C220.017 108.694 219.789 109.059 219.46 109.315C219.131 109.572 218.721 109.704 218.304 109.688C217.44 109.688 216.928 109.131 217.081 108.285H217.062Z" fill="#e43f3f"/>
<path d="M223.178 110.892H225.048V111.678H225.108C225.815 111.099 226.687 110.758 227.599 110.705C229.526 110.705 230.39 112.25 229.915 114.633C229.391 117.281 227.472 118.803 225.74 118.803C225.411 118.797 225.087 118.718 224.792 118.571C224.497 118.424 224.238 118.213 224.035 117.954H223.978L223.84 119.207L223.391 121.47H221.08L223.178 110.892ZM227.573 114.655C227.85 113.271 227.532 112.583 226.559 112.583C225.966 112.616 225.407 112.871 224.992 113.297L224.375 116.413C224.532 116.578 224.722 116.709 224.933 116.797C225.143 116.885 225.37 116.929 225.598 116.925C226.443 116.925 227.259 116.252 227.573 114.655Z" fill="#e43f3f"/>
<path d="M233.217 115.414L233.76 112.688H231.811L232.151 110.982L234.216 110.892L234.964 108.532H236.861L236.389 110.892H239.647L239.273 112.688H236.015L235.48 115.384C235.249 116.559 235.656 117 236.782 117C237.321 116.994 237.855 116.902 238.364 116.727L238.45 118.384C237.602 118.647 236.72 118.788 235.832 118.803C233.419 118.803 232.817 117.438 233.217 115.414Z" fill="#e43f3f"/>
<path d="M201.48 134.102L202.018 131.379H200.073L200.41 129.669L202.478 129.579L203.226 127.219H205.119L204.652 129.579H207.906L207.55 131.379H204.296L203.761 134.075C203.529 135.25 203.937 135.691 205.063 135.691C205.601 135.684 206.133 135.59 206.641 135.415L206.728 137.072C205.879 137.336 204.998 137.477 204.109 137.491C201.678 137.491 201.076 136.129 201.48 134.102Z" fill="#e43f3f"/>
<path d="M207.951 140.165L208.699 138.418C208.884 138.483 209.079 138.517 209.275 138.519C209.641 138.534 210.005 138.448 210.326 138.27C210.646 138.091 210.912 137.828 211.093 137.509L211.325 137.105L209.477 129.58H211.751L212.402 132.916C212.533 133.642 212.626 134.412 212.709 135.231H212.772C213.146 134.461 213.55 133.668 213.939 132.916L215.727 129.595H217.893L213.3 137.405C212.177 139.338 211.055 140.341 209.095 140.341C208.707 140.338 208.322 140.279 207.951 140.165V140.165Z" fill="#e43f3f"/>
<path d="M219.475 129.58H221.345V130.369H221.416C222.123 129.79 222.995 129.45 223.907 129.396C225.834 129.396 226.698 130.937 226.227 133.324C225.699 135.968 223.78 137.491 222.048 137.491C221.712 137.492 221.38 137.418 221.076 137.273C220.773 137.129 220.505 136.918 220.294 136.656H220.242L220.1 137.91L219.651 140.154H217.358L219.475 129.58ZM223.866 133.346C224.143 131.958 223.825 131.27 222.856 131.27C222.263 131.306 221.704 131.562 221.289 131.988L220.668 135.1C220.825 135.266 221.014 135.397 221.224 135.486C221.434 135.575 221.66 135.619 221.888 135.617C222.737 135.617 223.552 134.943 223.866 133.346Z" fill="#e43f3f"/>
<path d="M227.775 133.44C227.999 132.318 228.599 131.305 229.475 130.57C230.352 129.835 231.453 129.421 232.597 129.396C234.979 129.396 235.911 131.001 235.496 133.099C235.423 133.449 235.323 133.793 235.196 134.128H229.339L229.642 132.591H233.955L233.506 133.028C233.753 131.786 233.341 131.136 232.327 131.136C231.205 131.136 230.3 131.902 229.997 133.44C229.679 135.041 230.412 135.744 231.912 135.744C232.642 135.723 233.357 135.541 234.007 135.209L234.493 136.589C233.504 137.152 232.391 137.462 231.254 137.491C228.856 137.491 227.278 136.006 227.775 133.44Z" fill="#e43f3f"/>
<path d="M238.136 129.55H245.299L244.982 131.169H237.815L238.136 129.55ZM237.418 133.174H244.581L244.263 134.79H237.097L237.418 133.174Z" fill="#e43f3f"/>
<path d="M250.656 126.64C249.892 128.129 248.985 129.541 247.948 130.855L246.489 130.982C247.24 129.635 247.883 128.231 248.411 126.782L250.656 126.64ZM253.697 126.64C252.934 128.129 252.029 129.541 250.992 130.855L249.534 130.982C250.283 129.635 250.926 128.23 251.456 126.782L253.697 126.64Z" fill="#e43f3f"/>
<path d="M255.271 134.102L255.814 131.379H253.865L254.205 129.669L256.27 129.579L257.018 127.219H258.914L258.447 129.579H261.701L261.327 131.379H258.069L257.534 134.075C257.302 135.25 257.71 135.691 258.836 135.691C259.375 135.684 259.909 135.59 260.418 135.415L260.504 137.072C259.656 137.336 258.774 137.477 257.886 137.491C255.473 137.491 254.871 136.129 255.271 134.102Z" fill="white"/>
<path d="M262.895 133.44C263.117 132.318 263.715 131.305 264.592 130.57C265.468 129.835 266.569 129.42 267.712 129.396C270.095 129.396 271.03 131.001 270.611 133.099C270.538 133.449 270.438 133.793 270.312 134.128H264.454L264.757 132.591H269.07L268.621 133.028C268.868 131.786 268.457 131.136 267.443 131.136C266.321 131.136 265.416 131.902 265.113 133.44C264.795 135.041 265.528 135.744 267.028 135.744C267.758 135.723 268.475 135.541 269.126 135.209L269.609 136.589C268.62 137.153 267.507 137.463 266.369 137.491C263.961 137.491 262.382 136.006 262.895 133.44Z" fill="white"/>
<path d="M274.665 133.29L272.9 129.58H275.361L275.907 130.829C276.053 131.259 276.281 131.723 276.442 132.149H276.506C276.79 131.723 277.127 131.255 277.411 130.821L278.339 129.58H280.732L277.426 133.548L279.36 137.289H276.895L276.266 136.017C276.072 135.587 275.847 135.104 275.653 134.67H275.589C275.268 135.112 274.924 135.561 274.598 136.021L273.588 137.289H271.194L274.665 133.29Z" fill="white"/>
<path d="M283.306 134.102L283.844 131.379H281.899L282.24 129.669L284.305 129.579L285.053 127.219H286.945L286.478 129.579H289.736L289.362 131.379H286.126L285.591 134.075C285.359 135.25 285.767 135.691 286.893 135.691C287.43 135.684 287.963 135.59 288.471 135.415L288.557 137.072C287.709 137.337 286.828 137.478 285.939 137.491C283.508 137.491 282.902 136.129 283.306 134.102Z" fill="white"/>
<path d="M297.77 126.25H299.685L291.872 139.795H289.957L297.77 126.25Z" fill="white"/>
<path d="M194.579 158.52L195.57 156.881C196.032 157.122 196.545 157.25 197.066 157.255C198.166 157.255 198.603 156.754 198.824 155.632L199.927 150.077H196.819L197.193 148.282H202.594L201.154 155.538C200.78 157.409 199.658 159.058 196.868 159.058C196.072 159.07 195.286 158.885 194.579 158.52V158.52ZM200.324 145.664C200.412 145.254 200.64 144.887 200.969 144.628C201.298 144.368 201.708 144.232 202.127 144.242C203.01 144.242 203.533 144.826 203.369 145.664C203.281 146.071 203.053 146.435 202.724 146.692C202.395 146.948 201.986 147.081 201.57 147.066C200.683 147.066 200.156 146.509 200.324 145.664V145.664Z" fill="white"/>
<path d="M205.149 153.863C205.489 152.134 207.098 151.244 210.79 151.031C210.846 150.339 210.416 149.909 209.372 149.909C208.498 149.973 207.646 150.221 206.873 150.634L206.354 149.138C207.533 148.49 208.849 148.128 210.195 148.083C212.364 148.083 213.457 149.206 212.989 151.581L212.114 155.995H210.244V155.123H210.187C209.323 155.744 208.302 156.111 207.24 156.182C205.662 156.182 204.891 155.149 205.149 153.863ZM210.262 153.679L210.513 152.415C208.22 152.527 207.521 153.021 207.382 153.679C207.285 154.177 207.655 154.427 208.302 154.427C209.017 154.376 209.699 154.111 210.262 153.668V153.679Z" fill="white"/>
<path d="M215.132 148.271H217.433L217.926 151.91C218.024 152.684 218.08 153.477 218.151 154.289H218.211C218.603 153.477 218.959 152.684 219.374 151.91L221.312 148.271H223.5L219.138 155.995H216.52L215.132 148.271Z" fill="white"/>
<path d="M223.836 153.863C224.181 152.134 225.785 151.244 229.477 151.031C229.533 150.339 229.103 149.909 228.059 149.909C227.186 149.973 226.336 150.22 225.565 150.634L225.045 149.138C226.218 148.496 227.527 148.139 228.864 148.095C231.037 148.095 232.129 149.217 231.658 151.592L230.768 155.995H228.897V155.123H228.838C227.978 155.743 226.962 156.109 225.905 156.182C224.353 156.182 223.578 155.149 223.836 153.863ZM228.953 153.679L229.204 152.415C226.907 152.527 226.212 153.021 226.07 153.679C225.972 154.177 226.343 154.427 226.99 154.427C227.705 154.375 228.389 154.111 228.953 153.668V153.679Z" fill="white"/>
<path d="M232.825 154.985L234.081 153.556C234.94 154.161 235.967 154.482 237.018 154.472C237.867 154.472 238.297 154.188 238.372 153.81C238.447 153.432 238.117 153.223 236.662 152.905C234.654 152.452 233.969 151.682 234.205 150.492C234.493 149.052 236.03 148.072 238.233 148.072C239.364 148.078 240.463 148.448 241.368 149.127L240.07 150.504C239.369 150.021 238.539 149.761 237.687 149.755C236.973 149.755 236.565 150.01 236.498 150.373C236.412 150.803 236.872 150.9 238.117 151.196C240.395 151.727 240.923 152.407 240.672 153.664C240.395 155.063 238.847 156.159 236.367 156.159C235.092 156.151 233.852 155.74 232.825 154.985Z" fill="white"/>
<path d="M242.957 152.134C243.466 149.565 245.849 148.083 248.224 148.083C249.443 148.083 250.386 148.514 250.906 149.135L249.571 150.552C249.138 150.155 248.572 149.933 247.985 149.931C247.348 149.919 246.729 150.134 246.237 150.538C245.745 150.942 245.414 151.508 245.303 152.134C245.037 153.47 245.767 154.33 247.035 154.33C247.815 154.285 248.568 154.026 249.212 153.582L249.851 155.026C248.861 155.745 247.674 156.143 246.451 156.167C244.02 156.182 242.449 154.697 242.957 152.134Z" fill="white"/>
<path d="M253.82 148.271H255.69L255.533 149.961H255.589C256.599 148.697 257.859 148.091 259.09 148.091C259.583 148.068 260.073 148.176 260.511 148.402L259.666 150.328C259.243 150.17 258.794 150.093 258.342 150.1C257.388 150.1 256.303 150.597 255.35 151.97L254.553 155.987H252.264L253.82 148.271Z" fill="white"/>
<path d="M265.344 150.066H262.232L262.606 148.271H268.008L266.474 155.995H264.185L265.344 150.066ZM265.719 145.664C265.806 145.254 266.035 144.887 266.364 144.628C266.693 144.368 267.102 144.232 267.521 144.242C268.404 144.242 268.928 144.826 268.759 145.664C268.673 146.072 268.445 146.437 268.116 146.694C267.787 146.95 267.378 147.082 266.96 147.066C266.096 147.066 265.554 146.509 265.737 145.664H265.719Z" fill="white"/>
<path d="M271.834 148.271H273.704V149.056H273.764C274.471 148.477 275.343 148.137 276.255 148.083C278.182 148.083 279.046 149.628 278.571 152.011C278.047 154.659 276.128 156.182 274.396 156.182C274.064 156.184 273.735 156.111 273.435 155.968C273.134 155.826 272.87 155.617 272.661 155.359H272.605L272.463 156.612L272.018 158.875H269.725L271.834 148.271ZM276.229 152.033C276.506 150.649 276.188 149.961 275.216 149.961C274.622 149.995 274.063 150.25 273.648 150.676L273.031 153.791C273.189 153.957 273.379 154.087 273.589 154.176C273.8 154.264 274.026 154.308 274.254 154.304C275.1 154.304 275.911 153.634 276.229 152.033Z" fill="white"/>
<path d="M281.873 152.793L282.416 150.066H280.467L280.807 148.36L282.872 148.271L283.62 145.91H285.516L285.045 148.271H288.303L287.948 150.066H284.69L284.155 152.763C283.923 153.937 284.331 154.379 285.457 154.379C285.995 154.373 286.529 154.28 287.039 154.106L287.125 155.763C286.277 156.027 285.395 156.169 284.507 156.182C282.075 156.182 281.473 154.82 281.873 152.793Z" fill="white"/>
<path d="M293.671 145.331C292.909 146.819 292.003 148.23 290.967 149.542L289.508 149.673C290.258 148.325 290.901 146.919 291.43 145.469L293.671 145.331ZM296.716 145.331C295.952 146.819 295.045 148.23 294.008 149.542L292.549 149.673C293.301 148.325 293.944 146.919 294.471 145.469L296.716 145.331Z" fill="#e43f3f"/>
<path d="M296.973 153.44L301.612 150.87V150.81L297.995 148.226L298.406 146.15L303.643 150.051L303.332 151.618L296.54 155.519L296.973 153.44Z" fill="#e43f3f"/>
<path d="M193.389 170.321L193.7 168.738L200.496 164.841L200.096 166.902L195.454 169.483V169.546L199.071 172.131L198.659 174.207L193.389 170.321Z" fill="#e43f3f"/>
<path d="M208.531 163.633H210.446L202.636 177.173H200.717L208.531 163.633Z" fill="#e43f3f"/>
<path d="M210.431 173.687L211.687 172.258C212.547 172.863 213.573 173.183 214.624 173.175C215.473 173.175 215.903 172.89 215.978 172.513C216.053 172.135 215.72 171.922 214.268 171.604C212.256 171.155 211.575 170.384 211.811 169.191C212.095 167.751 213.633 166.775 215.839 166.775C216.97 166.781 218.069 167.151 218.974 167.829L217.676 169.198C216.976 168.716 216.147 168.455 215.297 168.45C214.583 168.45 214.175 168.708 214.104 169.071C214.022 169.498 214.478 169.599 215.727 169.894C218.001 170.425 218.532 171.106 218.282 172.363C218.005 173.762 216.453 174.854 213.977 174.854C212.701 174.849 211.46 174.44 210.431 173.687Z" fill="#e43f3f"/>
<path d="M220.56 170.826C221.072 168.256 223.451 166.775 225.83 166.775C227.05 166.775 227.989 167.205 228.512 167.822L227.177 169.243C226.743 168.845 226.176 168.624 225.587 168.622C224.951 168.61 224.331 168.825 223.84 169.229C223.348 169.633 223.017 170.199 222.905 170.826C222.643 172.161 223.373 173.021 224.641 173.021C225.422 172.977 226.175 172.718 226.818 172.273L227.454 173.721C226.463 174.434 225.278 174.825 224.057 174.843C221.622 174.869 220.051 173.388 220.56 170.826Z" fill="#e43f3f"/>
<path d="M231.426 166.954H233.296L233.143 168.641H233.195C234.209 167.38 235.466 166.771 236.7 166.771C237.193 166.748 237.683 166.855 238.121 167.081L237.276 169.008C236.853 168.85 236.403 168.773 235.952 168.779C234.994 168.779 233.913 169.277 232.959 170.65L232.163 174.663H229.874L231.426 166.954Z" fill="#e43f3f"/>
<path d="M242.946 168.757H239.838L240.212 166.962H245.613L244.083 174.682H241.79L242.946 168.757ZM243.32 164.355C243.41 163.945 243.638 163.578 243.968 163.318C244.298 163.058 244.707 162.921 245.127 162.93C246.01 162.93 246.533 163.517 246.365 164.355C246.277 164.762 246.048 165.125 245.719 165.381C245.39 165.636 244.982 165.768 244.566 165.754C243.702 165.754 243.174 165.196 243.339 164.355H243.32Z" fill="#e43f3f"/>
<path d="M249.44 166.954H251.31V167.74H251.366C252.075 167.161 252.948 166.82 253.861 166.767C255.788 166.767 256.648 168.308 256.177 170.695C255.653 173.343 253.73 174.861 251.998 174.861C251.666 174.859 251.338 174.783 251.039 174.639C250.739 174.495 250.476 174.286 250.267 174.027H250.218L250.076 175.28L249.627 177.525H247.338L249.44 166.954ZM253.835 170.717C254.108 169.333 253.79 168.641 252.821 168.641C252.228 168.676 251.669 168.933 251.254 169.359L250.637 172.475C250.794 172.64 250.984 172.77 251.193 172.858C251.403 172.946 251.629 172.99 251.856 172.987C252.702 172.995 253.517 172.322 253.835 170.724V170.717Z" fill="#e43f3f"/>
<path d="M259.479 171.484L260.018 168.757H258.073L258.413 167.051L260.478 166.962L261.226 164.601H263.119L262.651 166.962H265.928L265.554 168.757H262.299L261.776 171.443C261.544 172.617 261.952 173.058 263.077 173.058C263.615 173.052 264.148 172.96 264.656 172.785L264.742 174.442C263.893 174.704 263.012 174.844 262.124 174.858C259.681 174.869 259.075 173.507 259.479 171.484Z" fill="#e43f3f"/>
<path d="M267.503 172.131L272.145 169.546V169.483L268.528 166.902L268.939 164.826L274.176 168.723L273.861 170.306L267.069 174.207L267.503 172.131Z" fill="#e43f3f"/>
<path d="M322.884 67.3308L320.841 85.9358L149.555 88.0642L151.874 69.302C152.095 67.5064 152.957 65.8507 154.3 64.6382C155.643 63.4258 157.377 62.7378 159.186 62.7001L315.807 59.5694C316.801 59.5505 317.787 59.7439 318.701 60.1368C319.614 60.5296 320.433 61.1129 321.103 61.8475C321.773 62.5822 322.278 63.4514 322.585 64.3969C322.892 65.3425 322.994 66.3428 322.884 67.3308V67.3308Z" fill="white" stroke="black" stroke-width="1.2" stroke-linecap="round" stroke-linejoin="round"/>
<path d="M304.983 78.0041C308.183 77.9901 310.767 75.7096 310.755 72.9105C310.743 70.1114 308.139 67.8536 304.939 67.8675C301.739 67.8815 299.155 70.162 299.167 72.9611C299.179 75.7602 301.783 78.018 304.983 78.0041Z" fill="#e43f3f" stroke="black" stroke-width="1.2" stroke-linecap="round" stroke-linejoin="round"/>
<path d="M289.876 78.07C293.076 78.056 295.66 75.7756 295.648 72.9765C295.635 70.1773 293.031 67.9195 289.832 67.9335C286.632 67.9474 284.047 70.2279 284.06 73.027C284.072 75.8261 286.676 78.084 289.876 78.07Z" fill="black" stroke="black" stroke-width="1.2" stroke-linecap="round" stroke-linejoin="round"/>
<path d="M274.469 78.1335C277.669 78.1195 280.253 75.839 280.241 73.0399C280.229 70.2408 277.625 67.983 274.425 67.9969C271.225 68.0109 268.641 70.2914 268.653 73.0905C268.666 75.8896 271.27 78.1474 274.469 78.1335Z" fill="black" stroke="black" stroke-width="1.2" stroke-linecap="round" stroke-linejoin="round"/>
<mask id="mask0" mask-type="alpha" maskUnits="userSpaceOnUse" x="36" y="1" width="297" height="296">
<path d="M184.012 5.32914V14.5531C109.764 14.5531 40.3487 74.7445 40.3412 149C39.8998 148.998 39.4624 149.084 39.0545 149.253C38.6466 149.421 38.2764 149.67 37.9655 149.983C37.6546 150.296 37.4092 150.669 37.2436 151.078C37.078 151.487 36.9955 151.925 37.001 152.366C38.774 230.916 102.096 294.242 180.646 296C181.087 296.004 181.524 295.921 181.933 295.755C182.342 295.589 182.714 295.344 183.027 295.033C183.34 294.722 183.588 294.352 183.757 293.945C183.926 293.538 184.013 293.101 184.012 292.66V283.451C258.264 283.451 318.459 223.255 318.459 149.004H327.675C328.117 149.005 328.554 148.918 328.961 148.749C329.369 148.579 329.738 148.33 330.049 148.017C330.359 147.703 330.604 147.331 330.77 146.922C330.935 146.513 331.017 146.075 331.012 145.634C329.243 67.1252 265.928 3.77685 187.378 2.00013C186.938 1.99619 186.502 2.07932 186.094 2.24476C185.686 2.4102 185.315 2.65467 185.002 2.96409C184.69 3.27351 184.441 3.64177 184.271 4.04767C184.101 4.45357 184.013 4.88909 184.012 5.32914Z" fill="#FF642D" stroke="white" stroke-width="2" stroke-linecap="round" stroke-linejoin="round"/>
</mask>
<g mask="url(#mask0)">
<path d="M82.5186 196.317C98.7746 243.937 122.635 244.195 142.837 231.264C156.202 222.721 156.116 217.925 158.027 209.973C159.938 202.021 169.776 159.956 176.191 153.612C182.606 147.268 188.609 144.261 182.175 137.203C175.742 130.144 135.97 138.699 127.191 150.264C118.412 161.83 82.5186 196.317 82.5186 196.317Z" fill="#e43f3f"/>
<path d="M169.678 175.984C169.678 175.984 166.312 180.846 167.831 186.651C169.349 192.457 175.685 195.397 184.917 186.651C194.148 177.906 200.571 169.154 195.177 156.926" fill="#e43f3f"/>
<path d="M184.917 186.651C184.917 186.651 174.504 192.326 172.996 185.529C171.489 178.733 172.009 177.162 172.009 177.162L168.343 178.684C168.343 178.684 164.371 183.427 168.343 188.862C172.315 194.297 175.959 192.677 178.715 191.073C180.877 189.735 182.948 188.259 184.917 186.651V186.651Z" fill="white"/>
<path d="M169.678 175.984C169.678 175.984 166.312 180.846 167.831 186.651C169.349 192.457 175.685 195.397 184.917 186.651C194.148 177.906 200.571 169.154 195.177 156.926" stroke="black" stroke-width="1.2" stroke-linecap="round" stroke-linejoin="round"/>
<path d="M175.334 142.772C175.334 142.772 164.64 155.202 163.787 165.267C162.934 175.333 165.07 179.612 171.485 178.755C177.9 177.899 197.993 162.148 198.005 145.839C198.005 133.698 188.766 130.13 181.764 128.345C171.754 125.798 140.245 138.968 140.245 138.968" fill="#e43f3f"/>
<path d="M171.126 148.36C169.918 150.189 166.604 164.444 169.132 170.403C172.009 177.173 177.361 176.713 181.008 173.623C184.655 170.534 167.778 186.58 163.903 177.173C158.322 163.633 171.126 148.36 171.126 148.36Z" fill="white"/>
<path d="M175.334 142.772C175.334 142.772 164.64 155.202 163.787 165.267C162.934 175.333 165.07 179.612 171.485 178.755C177.9 177.899 197.993 162.148 198.005 145.839C198.005 133.698 188.766 130.13 181.764 128.345C171.754 125.798 140.245 138.968 140.245 138.968" stroke="black" stroke-width="1.2" stroke-linecap="round" stroke-linejoin="round"/>
<path d="M140.69 142.772C140.69 142.772 151.425 131.109 165.497 129.307C181.764 127.219 201.854 140.363 211.13 130.803C216.049 125.731 208.138 112.317 184.027 105.476C157.896 98.0551 123.166 117.603 123.166 117.603" fill="#e43f3f"/>
<path d="M140.69 142.772C140.69 142.772 151.425 131.109 165.497 129.307C181.764 127.219 201.854 140.363 211.13 130.803C216.049 125.731 208.138 112.317 184.027 105.476C157.896 98.0551 123.166 117.603 123.166 117.603" stroke="black" stroke-width="1.2" stroke-linecap="round" stroke-linejoin="round"/>
<path d="M98.7744 99.626C98.7744 99.626 116.31 77.3853 159.938 75.2495C203.567 73.1137 220.668 95.7771 215.54 103.049C208.83 112.557 186.885 103.049 165.65 105.053C157.047 105.869 130.422 112.033 124.438 120.157" fill="#e43f3f"/>
<path d="M114.597 93.6414C114.597 93.6414 140.641 81.1109 164.262 79.4052C187.883 77.6996 209.5 88.5001 209.5 88.5001C209.5 88.5001 195.307 75.7482 169 75.0001C142.693 74.252 121.797 83.7217 121.797 83.7217L114.597 93.6414Z" fill="white"/>
<path d="M98.7744 99.626C98.7744 99.626 116.31 77.3853 159.938 75.2495C203.567 73.1137 220.668 95.7771 215.54 103.049C208.83 112.557 186.885 103.049 165.65 105.053C157.047 105.869 130.422 112.033 124.438 120.157" stroke="black" stroke-width="1.2" stroke-linecap="round" stroke-linejoin="round"/>
<path d="M119.302 115.235C119.302 115.235 139.407 139.406 146.233 153.092Z" fill="#e43f3f"/>
<path d="M119.302 115.235C119.302 115.235 139.407 139.406 146.233 153.092" stroke="black" stroke-width="1.2" stroke-linecap="round" stroke-linejoin="round"/>
<path d="M157.597 126.146C157.597 126.146 170.943 128.764 178.371 130.04Z" fill="#e43f3f"/>
<path d="M157.597 126.146C157.597 126.146 170.943 128.764 178.371 130.04" stroke="black" stroke-width="1.2" stroke-linecap="round" stroke-linejoin="round"/>
<path d="M114.597 203.85C114.597 203.85 109.181 201.378 105.893 193.579C102.324 185.114 102.193 182.653 102.193 182.653C102.193 182.653 128.279 184.568 140.249 180.379C152.218 176.189 159.497 199.713 159.497 199.713L114.597 203.85Z" fill="white"/>
<path d="M107.153 196.152C107.153 196.152 119.085 197.839 120.656 192.625C122.227 187.411 125.287 185.541 125.287 185.541C125.287 185.541 126.887 193.568 123.147 197.308C119.407 201.048 117.731 203.562 117.731 203.562C117.731 203.562 112.169 203.588 110.602 200.798C109.654 199.109 108.495 197.548 107.153 196.152V196.152Z" fill="#e43f3f"/>
<path d="M114.597 203.85C114.597 203.85 109.181 201.378 105.893 193.579C102.324 185.114 102.193 182.653 102.193 182.653C102.193 182.653 128.279 184.568 140.249 180.379C152.218 176.189 159.497 199.713 159.497 199.713L114.597 203.85Z" stroke="black" stroke-width="1.2" stroke-linecap="round" stroke-linejoin="round"/>
<path d="M123.151 287.397C133.845 292.102 161.333 296 161.333 296C161.333 296 156.355 261.513 157.455 231.26C158.554 201.007 166.563 181.946 167.846 180.39" fill="#e43f3f"/>
<path d="M123.151 287.397C133.845 292.102 161.333 296 161.333 296C161.333 296 156.355 261.513 157.455 231.26C158.554 201.007 166.563 181.946 167.846 180.39" stroke="black" stroke-width="1.2" stroke-linecap="round" stroke-linejoin="round"/>
<path d="M172.996 192.015C172.689 193.449 172.185 194.833 171.5 196.13C167.449 203.914 158.76 203.539 138.827 205.253C118.895 206.966 114.608 203.827 114.608 203.827C114.608 203.827 124.591 203.827 119.313 186.621C116.048 175.965 107.31 169.041 105.627 148.338C103.944 127.634 106.054 120.131 106.054 120.131C110.671 121.657 115.115 123.663 119.313 126.116C125.732 129.961 125.298 134.128 125.298 134.128C125.298 134.128 131.227 137.648 140.945 138.673C142.709 138.858 144.482 138.95 146.256 138.949C159.086 138.949 161.218 138.949 161.218 138.949C161.218 138.949 161.218 139.795 161.263 141.22C161.409 145.334 162.011 154.192 164.543 161.328C164.165 162.6 163.914 163.905 163.795 165.226C163.095 173.421 164.386 177.779 168.351 178.654C167.366 181.189 167.187 183.966 167.838 186.606C168.545 189.397 170.333 191.484 172.996 192.015Z" fill="white" stroke="black" stroke-width="1.2" stroke-linecap="round" stroke-linejoin="round"/>
<path d="M125.287 134.166C125.89 138.152 126.892 142.068 128.279 145.854" stroke="black" stroke-width="1.2" stroke-linecap="round" stroke-linejoin="round"/>
<path d="M104.965 209.88C104.965 209.88 109.524 183.94 105.249 158.688C100.974 133.436 95.7783 129.179 99.6385 117.61C103.499 106.041 132.147 82.7341 131.717 68.0827C131.286 53.4314 115.894 57.0147 93.65 71.423C73.676 84.3612 59.8812 105.424 52.0375 123.288C34.6144 162.929 37.0121 228.716 37.0121 217.252" fill="#e43f3f"/>
<path d="M125.287 58.8963C125.287 58.8963 87.5083 72.7359 70.5378 108.27C45.7349 160.221 52.449 214.75 52.449 214.75L38.5 180.5C38.5 180.5 44 125.5 66 98.5C80.5 76.5 106.368 62.9177 111.5 61.5C117 58 125.287 58.8963 125.287 58.8963Z" fill="white"/>
<path d="M104.965 209.88C104.965 209.88 109.524 183.94 105.249 158.688C100.974 133.436 95.7783 129.179 99.6385 117.61C103.499 106.041 132.147 82.7341 131.717 68.0827C131.286 53.4314 115.894 57.0147 93.65 71.423C73.676 84.3612 59.8812 105.424 52.0375 123.288C34.6144 162.929 37.0121 228.716 37.0121 217.252" stroke="black" stroke-width="1.2" stroke-linecap="round" stroke-linejoin="round"/>
<path d="M114.6 134.652L109.752 137.696L113.171 143.617" stroke="black" stroke-width="1.2" stroke-linecap="round" stroke-linejoin="round"/>
<path d="M114.597 138.983C114.597 138.983 121.157 141.403 123.151 141.403" stroke="black" stroke-width="1.2" stroke-linecap="round" stroke-linejoin="round"/>
<path d="M130.819 143.617C134.391 144.459 149.955 146.318 153.662 145.862" stroke="black" stroke-width="1.2" stroke-linecap="round" stroke-linejoin="round"/>
<path d="M130.561 149.482C134.133 150.324 149.697 152.183 153.404 151.727" stroke="black" stroke-width="1.2" stroke-linecap="round" stroke-linejoin="round"/>
<path d="M131.32 155.131C134.892 155.972 150.456 157.831 154.163 157.375" stroke="black" stroke-width="1.2" stroke-linecap="round" stroke-linejoin="round"/>
<path d="M156.134 153.096L160.507 156.286L157.597 160.221" stroke="black" stroke-width="1.2" stroke-linecap="round" stroke-linejoin="round"/>
<path d="M160.507 169.726L163.802 172.378L164.262 174.544L161.648 177.521" stroke="black" stroke-width="1.2" stroke-linecap="round" stroke-linejoin="round"/>
<path d="M131.32 175.004C131.32 175.004 155.218 175.632 159.508 174.005" stroke="black" stroke-width="1.2" stroke-linecap="round" stroke-linejoin="round"/>
<path d="M157.597 168.207C157.597 168.207 133.321 169.157 123.151 168.207" stroke="black" stroke-width="1.2" stroke-linecap="round" stroke-linejoin="round"/>
<path d="M123.155 164.594L117.735 168.207L123.155 172.389" stroke="black" stroke-width="1.2" stroke-linecap="round" stroke-linejoin="round"/>
<path d="M137.391 186.588C137.391 186.588 157.294 185.758 162.385 184.175" stroke="black" stroke-width="1.2" stroke-linecap="round" stroke-linejoin="round"/>
<path d="M137.944 191.084C137.944 191.084 157.847 190.25 162.938 188.667" stroke="black" stroke-width="1.2" stroke-linecap="round" stroke-linejoin="round"/>
<path d="M138.91 195.505C138.91 195.505 158.809 194.671 163.903 193.089" stroke="black" stroke-width="1.2" stroke-linecap="round" stroke-linejoin="round"/>
<path d="M133.729 185.383L129.14 193.092" stroke="black" stroke-width="1.2" stroke-linecap="round" stroke-linejoin="round"/>
<path d="M130.145 185.544L125.56 193.253" stroke="black" stroke-width="1.2" stroke-linecap="round" stroke-linejoin="round"/>
<path d="M159.258 277.971C159.258 277.971 161.839 298.517 162.385 301.94C162.931 305.362 108.324 292.862 112.173 289.97C116.022 287.079 159.258 277.971 159.258 277.971Z" fill="white" stroke="black" stroke-width="1.2" stroke-linecap="round" stroke-linejoin="round"/>
<path d="M157.455 231.26C157.455 231.26 156.149 250.187 159.273 277.971C159.856 283.178 126.02 290.393 117.753 287.827C109.487 285.261 62.8623 242.852 62.0207 239.463C61.1791 236.074 73.6685 248.163 109.753 245.13C145.837 242.096 157.455 231.26 157.455 231.26Z" fill="black" stroke="black" stroke-width="1.2" stroke-linecap="round" stroke-linejoin="round"/>
</g>
<path d="M42.1215 149.67C38.6541 149.194 36.956 150.522 37.0009 152.385C38.7738 230.916 102.096 294.242 180.645 296C181.087 296.004 181.524 295.921 181.933 295.755C182.342 295.589 182.713 295.344 183.027 295.033C183.34 294.722 183.588 294.352 183.757 293.945C183.926 293.538 184.013 293.101 184.012 292.66V283.451" stroke="white" stroke-width="2" stroke-linecap="round" stroke-linejoin="round"/>
</svg>
