<svg xmlns="http://www.w3.org/2000/svg" xmlns:xlink="http://www.w3.org/1999/xlink" viewBox="0 0 757.3 516.03">
  <defs>
    <linearGradient id="e3832ead-871d-4376-87ba-7f3dc7a9897f" x1="364.91" y1="427.38" x2="554.82" y2="-157.93" gradientUnits="userSpaceOnUse">
      <stop offset="0" stop-color="#003a45"/>
      <stop offset="1" stop-color="#006d8b"/>
    </linearGradient>
    <linearGradient id="a500d504-95c3-4b50-a389-2340a297dc51" x1="-3368.2" y1="142.13" x2="-3368.2" y2="172.66" gradientTransform="translate(3617.24)" gradientUnits="userSpaceOnUse">
      <stop offset="0" stop-color="#f0877e"/>
      <stop offset="1" stop-color="#fabeb2"/>
    </linearGradient>
    <linearGradient id="ec51eab5-0107-4b0f-a4b4-35cbcf080b82" x1="1749.45" y1="174.48" x2="1688.8" y2="69.64" gradientTransform="matrix(-1, 0, 0, 1, 1972.65, 0)" gradientUnits="userSpaceOnUse">
      <stop offset="0" stop-color="#5c1a00"/>
      <stop offset="1" stop-color="#b94300"/>
    </linearGradient>
    <linearGradient id="b5e7e680-2ed6-4885-8ba7-679a3302cc87" x1="-2547.7" y1="324.51" x2="-2553.2" y2="343.75" gradientTransform="translate(2802.64 39) rotate(-2.77)" xlink:href="#a500d504-95c3-4b50-a389-2340a297dc51"/>
    <linearGradient id="a767353a-16f4-4124-99bb-56e6f3d158ac" x1="2064.35" y1="492.33" x2="2111.4" y2="514.5" gradientTransform="matrix(-1, 0, 0, 1, 2380.69, 0)" gradientUnits="userSpaceOnUse">
      <stop offset="0" stop-color="#00c3e7"/>
      <stop offset="1" stop-color="#0063b9"/>
    </linearGradient>
    <linearGradient id="bcd3b758-10f8-4f79-a4c2-c6e84dfb4b60" x1="2163.56" y1="489.71" x2="2168.28" y2="514.6" xlink:href="#a767353a-16f4-4124-99bb-56e6f3d158ac"/>
    <linearGradient id="a8fdc9c4-427c-4ff5-a3e6-f5a9804ea969" x1="1951.03" y1="578.85" x2="1951.83" y2="588.34" gradientTransform="matrix(-0.99, -0.12, -0.12, 0.99, 2223.75, 153.52)" xlink:href="#a500d504-95c3-4b50-a389-2340a297dc51"/>
    <linearGradient id="fe50340d-7fbe-49ff-8dfb-50782c327778" x1="197.17" y1="309.3" x2="192.09" y2="196.78" gradientUnits="userSpaceOnUse">
      <stop offset="0" stop-color="#e75b00"/>
      <stop offset="1" stop-color="#ffa345"/>
    </linearGradient>
    <linearGradient id="a341fdb5-a758-485a-9def-24dd681e9ed0" x1="362.78" y1="401.74" x2="376.6" y2="152.04" xlink:href="#e3832ead-871d-4376-87ba-7f3dc7a9897f"/>
    <clipPath id="aacf718f-1ca1-4704-adec-957a8618fa02">
      <ellipse cx="374.5" cy="190.08" rx="69.62" ry="69.02" style="fill: none"/>
    </clipPath>
    <linearGradient id="f8dbc17f-b953-45f2-9b3b-13991cc66c0d" x1="322.37" y1="270.11" x2="340.32" y2="258.14" gradientTransform="matrix(1, 0, 0, 1, 0, 0)" xlink:href="#a500d504-95c3-4b50-a389-2340a297dc51"/>
    <linearGradient id="f9e483bb-c8d8-4eda-b893-9cea73bc072f" x1="206.11" y1="308.88" x2="201.03" y2="196.37" xlink:href="#fe50340d-7fbe-49ff-8dfb-50782c327778"/>
    <linearGradient id="a601d98c-e70b-4243-a83d-51cdd4b340a0" x1="244.66" y1="495.92" x2="227.96" y2="278.88" gradientTransform="matrix(1, 0, 0, 1, 0, 0)" xlink:href="#a767353a-16f4-4124-99bb-56e6f3d158ac"/>
    <linearGradient id="f9f6ee65-59bc-4a5b-adef-b6284f03328d" x1="-2031.52" y1="188.38" x2="-2033.6" y2="175.34" gradientTransform="matrix(-1, 0, 0, 1, -1757.76, 0)" xlink:href="#fe50340d-7fbe-49ff-8dfb-50782c327778"/>
    <linearGradient id="a4262588-f64d-4d95-b242-949e18bdb246" x1="-2023.1" y1="215.23" x2="-2023.17" y2="214.82" gradientTransform="matrix(-1, 0, 0, 1, -1757.76, 0)" xlink:href="#fe50340d-7fbe-49ff-8dfb-50782c327778"/>
    <linearGradient id="bcb1d27a-38eb-49de-a70e-be7b81e648ad" x1="259.55" y1="494.8" x2="242.85" y2="277.73" gradientTransform="matrix(1, 0, 0, 1, 0, 0)" xlink:href="#a767353a-16f4-4124-99bb-56e6f3d158ac"/>
    <linearGradient id="acf11c88-c8da-4e39-926d-1547dff9f986" x1="276.49" y1="493.67" x2="259.79" y2="276.6" gradientTransform="matrix(1, 0, 0, 1, 0, 0)" xlink:href="#a767353a-16f4-4124-99bb-56e6f3d158ac"/>
    <linearGradient id="a6279c18-18c0-4d86-b765-fda683380780" x1="252.2" y1="306.83" x2="247.11" y2="194.3" xlink:href="#fe50340d-7fbe-49ff-8dfb-50782c327778"/>
    <linearGradient id="f85a34ea-6c53-430b-9fb0-b91ff2144aad" x1="321.78" y1="204.18" x2="322.72" y2="203.59" gradientTransform="matrix(1, 0, 0, 1, 0, 0)" xlink:href="#a500d504-95c3-4b50-a389-2340a297dc51"/>
    <linearGradient id="ff24b6ea-3e59-42aa-b849-8cbadffb4084" x1="353.51" y1="164.03" x2="354.01" y2="163.71" gradientTransform="matrix(1, 0, 0, 1, 0, 0)" xlink:href="#a500d504-95c3-4b50-a389-2340a297dc51"/>
    <linearGradient id="ee9b6148-6326-439b-a3b8-272e758fe91b" x1="322.38" y1="204.2" x2="322.29" y2="203.68" xlink:href="#fe50340d-7fbe-49ff-8dfb-50782c327778"/>
    <linearGradient id="ffbcbaf7-139e-4a24-ba5a-e8f1b1c87dd6" x1="362.89" y1="166.44" x2="362.86" y2="166.27" gradientTransform="matrix(1, 0, 0, 1, 0, 0)" xlink:href="#a500d504-95c3-4b50-a389-2340a297dc51"/>
    <linearGradient id="f54fb7c2-1aec-4a81-9e7e-ade0d9f62979" x1="322.06" y1="204.42" x2="322.63" y2="203.45" gradientTransform="matrix(1, 0, 0, 1, 0, 0)" xlink:href="#a500d504-95c3-4b50-a389-2340a297dc51"/>
    <linearGradient id="a918bf33-a749-41f1-98f2-a175d51f8269" x1="353.67" y1="164.05" x2="353.87" y2="163.7" gradientTransform="matrix(1, 0, 0, 1, 0, 0)" xlink:href="#a500d504-95c3-4b50-a389-2340a297dc51"/>
    <linearGradient id="f50aee9a-8a79-4cf9-b628-7031f2600bfb" x1="246.99" y1="307.07" x2="241.9" y2="194.52" xlink:href="#fe50340d-7fbe-49ff-8dfb-50782c327778"/>
    <linearGradient id="ba8b5f62-4f44-4e8b-9fff-a7f009de73dc" x1="278.67" y1="305.63" x2="273.59" y2="193.13" xlink:href="#fe50340d-7fbe-49ff-8dfb-50782c327778"/>
    <linearGradient id="ab007d86-fcab-44f2-a5a5-810a418f1c37" x1="284.31" y1="305.44" x2="279.22" y2="192.83" xlink:href="#fe50340d-7fbe-49ff-8dfb-50782c327778"/>
    <linearGradient id="a14ea09d-1b09-4f9b-9bc2-6247f7f3171a" x1="292.88" y1="305.03" x2="287.8" y2="192.48" xlink:href="#fe50340d-7fbe-49ff-8dfb-50782c327778"/>
    <linearGradient id="a0a5386b-2ea9-4e0c-83e2-ee2e74c7a625" x1="279.78" y1="305.62" x2="274.7" y2="193.06" xlink:href="#fe50340d-7fbe-49ff-8dfb-50782c327778"/>
    <linearGradient id="bad7bdb9-d923-4036-bc1b-ebb1c4b879b9" x1="209.6" y1="266.16" x2="210.91" y2="259.51" gradientTransform="matrix(1, 0, 0, 1, 0, 0)" xlink:href="#a500d504-95c3-4b50-a389-2340a297dc51"/>
  </defs>
  <g style="isolation: isolate">
    <g id="facb9dc4-5b24-4d77-bd81-85f082e87d51" data-name="Calque 2">
      <g id="e42a64b2-5e36-4270-a667-2911b19b59d2" data-name="69">
        <g id="a46f6cf9-5b14-43a0-bc19-52dc9f078b1f" data-name="4">
          <g>
            <path d="M757.3,42.28a18.08,18.08,0,0,0-18.16-18H84.39a18.08,18.08,0,0,0-18.16,18V76.72H757.3Z" style="fill: #3e8bba"/>
            <g>
              <path d="M66.23,76.72V486.39a18.08,18.08,0,0,0,18.16,18H739.14a18.08,18.08,0,0,0,18.16-18V76.72Z" style="fill: url(#e3832ead-871d-4376-87ba-7f3dc7a9897f)"/>
              <g>
                <rect x="127.63" y="140.55" width="159.98" height="13.71" style="fill: #49c1ea"/>
                <rect x="127.63" y="216.05" width="166.22" height="13.71" style="fill: #68d359"/>
                <rect x="303.14" y="216.05" width="166.22" height="13.71" style="fill: #ffd07d"/>
                <rect x="127.1" y="187.88" width="67.86" height="13.71" style="fill: #ffd07d"/>
                <rect x="207.62" y="187.88" width="50.12" height="13.71" style="fill: #49c1ea"/>
                <rect x="268.8" y="187.88" width="25.06" height="13.71" style="fill: #ff7b7b"/>
                <rect x="303.14" y="187.88" width="25.06" height="13.71" style="fill: #49c1ea"/>
                <rect x="337.48" y="187.88" width="89.02" height="13.71" style="fill: #ff7b7b"/>
                <rect x="127.63" y="295.45" width="33.39" height="13.71" style="fill: #49c1ea"/>
                <rect x="174.23" y="401.31" width="33.39" height="13.71" style="fill: #ff7b7b"/>
                <rect x="127.63" y="426.84" width="33.39" height="13.71" style="fill: #68d359"/>
                <rect x="174.23" y="295.45" width="107.1" height="13.71" style="fill: #68d359"/>
                <rect x="194.95" y="322.01" width="274.41" height="14.29" style="fill: #ffd07d"/>
                <rect x="194.95" y="348.61" width="198.01" height="13.71" style="fill: #49c1ea"/>
                <rect x="406.75" y="348.61" width="198.01" height="13.71" style="fill: #49c1ea"/>
                <rect x="194.95" y="375.21" width="191.3" height="13.71" style="fill: #ffd07d"/>
                <rect x="127.1" y="267.28" width="67.86" height="13.71" style="fill: #ff7b7b"/>
                <rect x="207.62" y="267.28" width="120.58" height="13.71" style="fill: #49c1ea"/>
              </g>
              <g>
                <ellipse cx="676.06" cy="50.5" rx="10.47" ry="10.38" style="fill: #ffd07d"/>
                <ellipse cx="711.32" cy="50.5" rx="10.47" ry="10.38" style="fill: #ff7b7b"/>
                <ellipse cx="640.8" cy="50.5" rx="10.47" ry="10.38" style="fill: #68d359"/>
              </g>
            </g>
          </g>
          <g>
            <path d="M255.28,139.08s-4.23,23.37,5.76,25.18c0,0-12.37,13.06-24-4.74,0,0,2.33-12.2,0-21.76Z" style="fill: url(#a500d504-95c3-4b50-a389-2340a297dc51)"/>
            <path d="M237.85,88.17l.41-.11c25.07-6.86,44.66,8.93,43.61,34.5-.22,5.55-1.39,37.76-9.8,37.74-7.26,0-7.19-9.73-47.32-4.89-18.1,2.19-24-16.86-15.55-30.84,2.07-3.45,4.68-6.56,6.7-10C222.23,103.55,224.2,92.12,237.85,88.17Z" style="fill: url(#ec51eab5-0107-4b0f-a4b4-35cbcf080b82)"/>
            <g>
              <path d="M277.69,490.63s.46,7.85.56,10.66c.05,1.24-13.16,7.27-16-1.19l2.14-8.45,10.62-2.2Z" style="fill: url(#b5e7e680-2ed6-4885-8ba7-679a3302cc87)"/>
              <path d="M304.62,515.55c-30.87,1.51-45.18-1-45.18-1a25.79,25.79,0,0,1,2.84-14.43c-.17.28,1.51,1.53,1.73,1.67a8.66,8.66,0,0,0,2.49,1.09c3.2.88,5.94-.15,9-1,6.38-1.72,13.59-3.26,20-.8a13.86,13.86,0,0,1,8.18,8.66C303.8,510.06,305,515.53,304.62,515.55Z" style="fill: url(#a767353a-16f4-4124-99bb-56e6f3d158ac)"/>
            </g>
            <g>
              <path d="M208.52,498.51s-7.52,5.62-4.92,10.59,8.43,4.71,11.39,4.49,7.19-.69,9-3.66-2-8.87-2-8.87Z" style="fill: url(#bcd3b758-10f8-4f79-a4c2-c6e84dfb4b60)"/>
              <path d="M208.52,498.51s5.66,5.73,13.45,2.55a109.88,109.88,0,0,1,2.13-10.86c-2.87,1-7.88,1.59-14.56-1.74C208.76,494.53,208.33,498.47,208.52,498.51Z" style="fill: url(#a8fdc9c4-427c-4ff5-a3e6-f5a9804ea969)"/>
            </g>
            <path d="M219.12,266s-2.7.91-5.39,6.88c-5.55-4.38-15.7-11.29-21-16-9.13-8.13-14.83-11.74-21.63-22.15-3.49-5.36.13-11.85,3.62-16.12,8.81-10.77,16.95-22,25.8-32.78,2.21-2.68,4.46-5.33,6.78-7.92.88-1,6.31-5.71,6.19-6.62,0,0,.67,5.17,1.2,11.22a104,104,0,0,1,.51,14.89c-.47,5.88-6.47,12.2-9.9,16.61-4,5.16-9.19,9.86-12.83,15.21a4.73,4.73,0,0,0-.94,2.48c-.1,2.43,2.47,4.17,4.5,6.61q4.32,5.15,8.61,10.32C209.48,254.45,214.28,260.25,219.12,266Z" style="fill: url(#fe50340d-7fbe-49ff-8dfb-50782c327778)"/>
            <g>
              <path d="M402.63,113c-42.91-15.38-90.43,6.72-105.94,49.25a81,81,0,0,0,.77,57.7L190.72,269.52a6.49,6.49,0,0,0,.55,12,6.64,6.64,0,0,0,5-.23L303.18,231.6a82.3,82.3,0,0,0,43.18,35.62c42.91,15.37,90.43-6.72,106-49.25S445.53,128.33,402.63,113ZM350.82,255c-36.1-12.94-54.85-52.58-41.8-88.37s53-54.38,89.15-41.44S453,177.76,440,213.55,386.93,267.93,350.82,255Z" style="fill: #f2f2f2"/>
              <ellipse cx="374.5" cy="190.08" rx="69.62" ry="69.02" style="fill: url(#a341fdb5-a758-485a-9def-24dd681e9ed0)"/>
              <g style="clip-path: url(#aacf718f-1ca1-4704-adec-957a8618fa02)">
                <g>
                  <rect x="125.61" y="104.56" width="200.73" height="17.2" style="fill: #49c1ea"/>
                  <rect x="125.61" y="199.28" width="208.56" height="17.2" style="fill: #68d359"/>
                  <rect x="345.82" y="199.28" width="208.56" height="17.2" style="fill: #ffd07d"/>
                  <rect x="124.93" y="163.94" width="85.14" height="17.2" style="fill: #ffd07d"/>
                  <rect x="225.97" y="163.94" width="62.89" height="17.2" style="fill: #49c1ea"/>
                  <rect x="302.73" y="163.94" width="31.44" height="17.2" style="fill: #ff7b7b"/>
                  <rect x="345.82" y="163.94" width="31.44" height="17.2" style="fill: #49c1ea"/>
                  <rect x="388.91" y="163.94" width="111.7" height="17.2" style="fill: #ff7b7b"/>
                  <rect x="125.61" y="298.92" width="41.9" height="17.2" style="fill: #49c1ea"/>
                  <rect x="184.07" y="431.74" width="41.9" height="17.2" style="fill: #ff7b7b"/>
                  <rect x="125.61" y="463.78" width="41.9" height="17.2" style="fill: #68d359"/>
                  <rect x="184.07" y="298.92" width="134.38" height="17.2" style="fill: #68d359"/>
                  <rect x="210.07" y="332.24" width="344.31" height="17.93" style="fill: #ffd07d"/>
                  <rect x="210.07" y="365.62" width="248.45" height="17.2" style="fill: #49c1ea"/>
                  <rect x="475.82" y="365.62" width="248.45" height="17.2" style="fill: #49c1ea"/>
                  <rect x="210.07" y="398.99" width="240.03" height="17.2" style="fill: #ffd07d"/>
                  <rect x="124.93" y="263.57" width="85.14" height="17.2" style="fill: #ff7b7b"/>
                  <rect x="225.97" y="263.57" width="151.29" height="17.2" style="fill: #49c1ea"/>
                </g>
              </g>
            </g>
            <path d="M341.33,264.19c1,.18,2.38-.79,1.22-1-.27,0-.8-.17-1.47-.35-1.68-.46-4.19-1.21-5.44-1.61l-.68-.21a6.52,6.52,0,0,1-2.07-1.6c-.45-.53-.61-1,0-1.25,1.47-.48,1.71-1.39,1.59-1.81s-1.83.48-2.63.42a18.09,18.09,0,0,0-3.81,1.16l-2.14,1.77.07.26-1.56,1.53,2.88,4.38a24,24,0,0,0,4.2,0c1.8-.23,5.13-.87,7-.46a9,9,0,0,0,2.63.27h0a1.09,1.09,0,0,0,.73-.27h0c.26-.33-2.19-1.12-2.93-1.35l-.17-.06h0A18.27,18.27,0,0,1,341.33,264.19Z" style="fill: url(#f8dbc17f-b953-45f2-9b3b-13991cc66c0d)"/>
            <path d="M215.22,197.43c-.47,5.88-6.47,12.2-9.9,16.61-4,5.16-9.19,9.86-12.83,15.21a4.73,4.73,0,0,0-.94,2.48c-.1,2.43,2.47,4.17,4.5,6.61-12.93-4.75-9.12-13.47,4-29.06s11.37-30.77,11.37-30.77l3.24,4A104,104,0,0,1,215.22,197.43Z" style="opacity: 0.5;mix-blend-mode: multiply;fill: url(#f9e483bb-c8d8-4eda-b893-9cea73bc072f)"/>
            <path d="M260.16,272.14c-2.43,9.88-4.71,23.8-6.86,39.42-2.23,16.15-4.31,34.13-6.28,51.35-3.15,27.55-6,53.15-8.7,66.19-6,29.08-14.19,61.45-14.19,61.45s-11.41,8.32-14.58-1.74c1.55-13.35,3.67-83.12-1.06-139.31s14.6-81.19,14.6-81.19S269.15,235.67,260.16,272.14Z" style="fill: url(#a601d98c-e70b-4243-a83d-51cdd4b340a0)"/>
            <path d="M272.63,171.33c.08.24,2.9,7.93,5.42,14.36C276.34,179.76,274.34,173.8,272.63,171.33Z" style="fill: url(#f9f6ee65-59bc-4a5b-adef-b6284f03328d)"/>
            <path d="M265.91,214.8l-1,.25A6.49,6.49,0,0,0,265.91,214.8Z" style="opacity: 0.30000000000000004;mix-blend-mode: multiply;fill: url(#a4262588-f64d-4d95-b242-949e18bdb246)"/>
            <path d="M253.3,311.56c-2.23,16.15-4.31,34.13-6.28,51.35C233.61,341.38,241.3,300,241.3,300Z" style="opacity: 0.5;mix-blend-mode: multiply;fill: url(#bcb1d27a-38eb-49de-a70e-be7b81e648ad)"/>
            <path d="M258.19,390.52a12.67,12.67,0,0,1,.08,5.68c-7.29,34.07,5.9,96.14,5.9,96.14,8.43,4.11,13.73-.47,13.73-.47-.39-38.06,5.75-44.58,7.29-120.25,1.09-53.78-3.81-83.73-6.73-96.56a70.57,70.57,0,0,0-2.06-7.6l-20.58-5.93s-.79.92-2,2.58c-3.29,4.45-9.67,14.25-12.19,26.1A46.32,46.32,0,0,0,240.56,301C241,319.6,254.83,376.87,258.19,390.52Z" style="fill: url(#acf11c88-c8da-4e39-926d-1547dff9f986)"/>
            <path d="M283.84,202.68a21.41,21.41,0,0,1-1.88,8.85,57.53,57.53,0,0,0-2.84,7.57h0a50.09,50.09,0,0,0-1.72,8.35c0,.15,0,.31-.06.46l-.12,1.13c-.18,1.66-.35,3.34-.51,5v0c-1.32,13.18-1.8,26.25-.45,33.24-.06,0-.51.29-1.34.67h0c-4.56,2.09-20.21,8-42.62,2.91a87.74,87.74,0,0,1-9.16-2.59v0c-.11-.37-1.71-6.33-3.74-15.28-1.88-8.33-4.13-19.25-5.86-30.69a.42.42,0,0,1,0-.07c-.44-2.92-.85-5.89-1.2-8.84l0-.17h0c-.21-1.82-.42-3.63-.59-5.43,0-.34-.07-.68-.1-1-1.12-11.81-1.27-23.15.51-31.81a8.71,8.71,0,0,1,3.64-5.43c5-3.43,15.55-10.11,21.7-10,0,0,3.15,2.83,13.85,3.24,6.29,0,5-2.57,4.71-3.19.91,2,4.06,3.87,5.78,4.95a25.59,25.59,0,0,0,2.85,1.59l0,0,.48.22,0,0c2.33,1.14,6,3,7.46,5.19a9.12,9.12,0,0,1,.71,1.56c1.45,3.85,3,7.72,4.43,11.64a47.4,47.4,0,0,0,3.45,7.49A21.18,21.18,0,0,1,283.84,202.68Z" style="fill: url(#a6279c18-18c0-4d86-b765-fda683380780)"/>
            <path d="M322.41,203.62l.18.22-.5.21.08-.12Z" style="fill: url(#f85a34ea-6c53-430b-9fb0-b91ff2144aad)"/>
            <path d="M353.42,163.54a9.31,9.31,0,0,0,.72.64A7.76,7.76,0,0,1,353.42,163.54Z" style="fill: url(#ff24b6ea-3e59-42aa-b849-8cbadffb4084)"/>
            <path d="M322.59,203.84l-.5.21.08-.12.24-.31Z" style="fill: url(#ee9b6148-6326-439b-a3b8-272e758fe91b)"/>
            <path d="M362.61,166.5a3.32,3.32,0,0,0,.54-.25A3.32,3.32,0,0,1,362.61,166.5Z" style="fill: url(#ffbcbaf7-139e-4a24-ba5a-e8f1b1c87dd6)"/>
            <path d="M322.41,203.62l.18.22-.5.21.08-.12Z" style="fill: url(#f54fb7c2-1aec-4a81-9e7e-ade0d9f62979)"/>
            <path d="M353.42,163.54a9.31,9.31,0,0,0,.72.64A7.76,7.76,0,0,1,353.42,163.54Z" style="fill: url(#a918bf33-a749-41f1-98f2-a175d51f8269)"/>
            <path d="M274.88,268c-4.56,2.09-20.21,8-42.62,2.91a87.74,87.74,0,0,1-9.16-2.59v0c-.11-.37-1.71-6.33-3.74-15.28-1.88-8.33-4.13-19.25-5.86-30.69.39,2,8.93,45.33,35.86,46.24C266.26,269.14,272.55,268.54,274.88,268Z" style="opacity: 0.5;mix-blend-mode: multiply;fill: url(#f50aee9a-8a79-4cf9-b628-7031f2600bfb)"/>
            <path d="M279.11,219.11a50.09,50.09,0,0,0-1.72,8.35c0,.15,0,.31-.06.46l-.12,1.13c-5.37,3.23-6.29,15.41-5.74,8.41C272.08,229.82,278.9,219.43,279.11,219.11Z" style="fill: url(#ba8b5f62-4f44-4e8b-9fff-a7f009de73dc)"/>
            <g>
              <path d="M281.34,240.42s0,0,0-.08S281.42,240.36,281.34,240.42Z" style="fill: url(#ab007d86-fcab-44f2-a5a5-810a418f1c37)"/>
              <path d="M327.25,264.81c0,.3.25.83.06,1.1-2.7-.66-12.1-1.94-13.62-2.3-5.6-1.35-7.46-1.45-12-2.75l-.59-.1h0l-2-.32c-1.51-.25-3-.46-4.53-.67l-2.57-.33c-.81-.1-1.66-.18-2.52-.24s-1.78-.12-2.69-.17l-1.67-.09-1.1-.06c-1.45-.08-2.92-.18-4.36-.34-1.09-.12-2.17-.27-3.22-.47l-.78-.17c-.65-.14-1.29-.3-1.92-.49l-.29-.1a15.35,15.35,0,0,1-6.21-3.57l-.3-.32a13.89,13.89,0,0,1-1.14-1.36l-.45-.65c-.4-.58-.76-1.15-1.1-1.72a37.5,37.5,0,0,1-2.4-4.84l-.27-.67c-.44-1.11-.84-2.23-1.22-3.36s-.69-2.12-1.05-3.2c-.39-1.24-.8-2.49-1.24-3.77-.25-.72-.51-1.45-.79-2.19-.18-.48-.38-1-.58-1.47-.74-1.8-1.43-3.78-2.07-5.87a95.82,95.82,0,0,1-2.94-12.66c-.13-.75-.23-1.48-.33-2.2a.17.17,0,0,0,0-.07,19.51,19.51,0,0,1,.44-8.32c3.38-10.88,10.31-20.79,16.86-30.06,4.27,13.5,11.28,38.14,12.81,56.32a56.71,56.71,0,0,1-.13,13c-.13,0-.53.12-.46.06s-.21,0-.11,0a3.17,3.17,0,0,1,.49.28c.14-.15-.09-.12.07-.26.72-.6,2.17-.7,4-.5,5,.54,12.67,3.41,14.13,4,6.35,2.41,10.11,4.24,15.57,6.44,2.11.85,3.88,1.56,5.83,2.19a79.37,79.37,0,0,0,7.24,5.47A19.11,19.11,0,0,0,327.25,264.81Z" style="fill: url(#a14ea09d-1b09-4f9b-9bc2-6247f7f3171a)"/>
              <path d="M301.86,261a85.45,85.45,0,0,0-9.83-1.56c-8.74-1.11-20.52.49-26.21-7.39-5-7-5.82-13.92-9.11-21.87a97.44,97.44,0,0,1-5.38-20.8c1.84-.14,4.23-4.62,5.31.87,2.32,11.83,1.39,32.54,13.19,40.33C281.45,258.26,290.09,257,301.86,261Z" style="opacity: 0.5;mix-blend-mode: multiply;fill: url(#a0a5386b-2ea9-4e0c-83e2-ee2e74c7a625)"/>
            </g>
            <path d="M213.28,259a20.2,20.2,0,0,0,4.1,3c2.48,1.36-1.47,1.32-3,.87s-9.3,3.6-12.26,1.38Z" style="fill: url(#bad7bdb9-d923-4036-bc1b-ebb1c4b879b9)"/>
          </g>
          <g style="opacity: 0.9">
            <g>
              <rect width="164.31" height="92.69" rx="13.3" transform="translate(164.31 92.69) rotate(180)" style="fill: #51caf4"/>
              <path d="M152.21,65.21l28.36,37.41a3.5,3.5,0,0,1-4.4,5.2L133.06,86.13Z" style="fill: #51caf4"/>
            </g>
            <path d="M114.09,51.79V40.9l-9-3.14c-.18-.48-.38-.95-.59-1.41l4.13-8.54L104.74,24l-3.88-3.85-8.62,4.1c-.46-.21-.94-.41-1.42-.59l-3.17-8.93h-11L73.5,23.62c-.49.18-1,.38-1.43.59l-8.62-4.1L59.57,24l-3.88,3.85,4.13,8.54c-.21.46-.41.93-.59,1.41l-9,3.14V51.79l9,3.14c.18.48.38,1,.59,1.42l-4.13,8.53,3.88,3.85,3.88,3.85,8.62-4.09c.47.21.94.41,1.43.59L76.67,78h11l3.17-8.93c.48-.18,1-.38,1.42-.59l8.62,4.09,3.88-3.85,3.88-3.85-4.13-8.54c.21-.46.41-.93.59-1.41ZM82.16,57.42A11.07,11.07,0,1,1,93.32,46.35,11.12,11.12,0,0,1,82.16,57.42Z" style="fill: #fff;opacity: 0.8"/>
          </g>
        </g>
      </g>
    </g>
  </g>
</svg>
